<svg xmlns="http://www.w3.org/2000/svg" viewBox="0 0 67.3 55"><g id="Layer_2" data-name="Layer 2"><g id="Layer_1-2" data-name="Layer 1"><path d="M58.4,19.1c-2.3-3.2-3.5-7.3-8.2-8C53.6,6,53.8,3,51,.9A5,5,0,0,0,44.2,2a5.5,5.5,0,0,0,.5,7.8l-8.8,5.1c-3,1.7-3.6,4.4-2.9,7.6s.6,3.6,1,5.5l-3.6.6c-1.6-3.4-2-7.5-6.2-9,3.3-3.3,4-6.6,2.1-8.8a4.3,4.3,0,0,0-5.8-.9c-2.6,1.7-2.9,4.1-.7,8.1C12.9,19,8.1,22.2,6.9,29.6a3.2,3.2,0,0,1-.3.9c-.7,1.5-.5,2.9,1.2,3.3s1.8-1.1,2.2-2.3,1-5.1,4-6.1A15.2,15.2,0,0,1,6.1,40.3l-5,2.6c-.4.3-1,.7-1.1,1.2s2.5,6.3,4.3,7.3a15.9,15.9,0,0,0,.3-2.9,2.6,2.6,0,0,1,1.9-3c4.5-1.9,9.3-3.4,11.3-9L19,38.1c3,4.2,4.1,9.2,5,14.2.5,2.5,1.6,3,3.8,2.5l6.5-1.4a7.2,7.2,0,0,0-.1-1.3c-1-4.5-.4-6,3.4-8.6l5-3.5c2.7-2.1,3.1-2.1,6.6-2.7s3.2.9,3.6,2.9a22.5,22.5,0,0,0,.6,3.6c1.1,3.3,2.2,6.7,3.4,10,.2.5,1.2,1.3,1.5,1.2,2.8-.8,5.5-1.8,8.2-2.8-.1-.3-.1-.6-.2-1a9.2,9.2,0,0,0-2.9-.3c-2.6.3-3.7-.9-4.2-3.3S57.7,40,56.9,36.3a5,5,0,0,0,.4-2.9,19.2,19.2,0,0,0-1.2-2.5L52.8,20.4l.9-.5c1.6,5,6.1,6,10,7.8,1.6.7,2.8.4,3.4-1.3s-1.1-1.6-2-2.2S59.9,21.3,58.4,19.1ZM37.8,34.9l1.5,1-6.5,6.9-1,1.1c-3,2.9-3,2.9-1.4,6.7l-.6.7c-.5-.6-1.4-1.2-1.5-1.9C27.4,44.2,26.5,39,24.2,34c-.6-1.3.5-3.5.8-5.3l.8.3c1.2,1.3,2.4,3.8,3.4,3.7,2.8-.2,5.6-1.4,8.3-2.5.4-.1.5-1.4.4-2.1s-.7-3-.8-4.5c-.2-4.5-.1-4.6,4.7-6.4-.5,3.2-.9,6.2-1.6,9.1S38.6,31.9,37.8,34.9Z" fill="#fff" fill-rule="evenodd"/></g></g></svg>