
<svg width="82px" height="56px" viewBox="0 0 82 56" version="1.1" xmlns="http://www.w3.org/2000/svg" xmlns:xlink="http://www.w3.org/1999/xlink">
    <defs>
        <polygon id="path-6di88snh2m-1" points="-1.19348975e-16 0 30.5084817 0 30.5084817 54.86384 -1.19348975e-16 54.86384"></polygon>
        <polygon id="path-6di88snh2m-3" points="0 0 26.01368 0 26.01368 48.9867952 0 48.9867952"></polygon>
    </defs>
    <g id="Desktop" stroke="none" stroke-width="1" fill="none" fill-rule="evenodd">
        <g id="Interactive-map-all-opened" transform="translate(-251.000000, -965.000000)">
            <g id="Group-9" transform="translate(251.446478, 965.602832)">
                <g id="Group-3">
                    <mask id="mask-6di88snh2m-2" fill="white">
                        <use xlink:href="#path-6di88snh2m-1"></use>
                    </mask>
                    <g id="Clip-2"></g>
                    <path d="M29.6604817,49.05504 L29.6604817,52.45664 C19.7132817,53.26464 10.0204817,54.05184 0.0236817299,54.86384 C0.0236817299,53.74464 -0.0355182701,52.92944 0.0332817299,52.12544 C0.78928173,43.32624 1.56368173,34.52784 2.33728173,25.72944 L2.78288173,12.98224 C7.12288173,9.00624 11.7852817,4.73344 16.9516817,-0.00016 C17.6804817,1.21344 18.3292817,2.29264 18.9780817,3.37184 L25.0244817,10.13584 C27.1148817,12.32544 28.9300817,14.78224 30.5084817,16.69184 L29.6604817,49.05504 Z M6.37648173,45.45584 C8.54688173,45.23664 10.4772817,45.04064 12.5844817,44.82704 C12.3660817,41.14144 12.1700817,37.81824 11.9676817,34.40064 L6.37648173,34.40064 L6.37648173,45.45584 Z M24.2348817,36.63344 C18.3532817,35.52944 18.3444817,35.94224 18.6580817,41.42064 C18.6708817,41.64864 18.8676817,41.86624 19.0356817,42.20144 L24.2348817,42.20144 L24.2348817,36.63344 Z M19.8884817,29.40864 C21.7188817,29.52144 23.2348817,29.61424 24.7188817,29.70544 C25.6340817,23.84064 24.5876817,22.43584 20.0916817,23.32944 C20.0276817,23.85664 19.9108817,24.42624 19.8980817,24.99744 C19.8676817,26.33504 19.8884817,27.67424 19.8884817,29.40864 L19.8884817,29.40864 Z M13.4628817,11.86864 L9.88848173,11.86864 C8.53968173,17.81664 9.63568173,18.18944 14.0580817,17.27584 C13.8652817,15.52464 13.6700817,13.74624 13.4628817,11.86864 L13.4628817,11.86864 Z" id="Fill-1" fill="#FABDB8" mask="url(#mask-6di88snh2m-2)"></path>
                </g>
                <g id="Group-6" transform="translate(55.539842, 3.581040)">
                    <mask id="mask-6di88snh2m-4" fill="white">
                        <use xlink:href="#path-6di88snh2m-3"></use>
                    </mask>
                    <g id="Clip-5"></g>
                    <path d="M11.716,0.192 C16.1832,0.364 20.688,0.5368 25.5064,0.7216 C26.996,16.7416 24.6208,32.6128 25.7272,48.2912 C23.3912,49.144 3.1488,49.2048 0,48.5168 C1.2776,32.548 2.5576,16.5544 3.84,0.5256 C5.0896,0.3336 5.9856,0.196 7.2576,0 L11.716,0.192 Z M12.6272,35.6864 L7.0512,35.6864 C5.7656,41.3088 6.152,41.7864 11.512,41.4584 C11.8304,41.4384 12.1432,41.3312 12.6272,41.2296 L12.6272,35.6864 Z M11.604,13.7528 C13.6424,13.9624 15.5616,14.16 17.7104,14.3808 C17.4728,12.2184 17.276,10.4224 17.0792,8.6288 L11.604,8.6288 L11.604,13.7528 Z M6.9336,28.1496 C8.4,28.236 9.5544,28.3824 10.7016,28.3368 C11.2024,28.3176 12.052,27.9816 12.1176,27.66 C12.4,26.272 12.516,24.8368 12.5376285,23.4168 C12.5424,23.0968 11.9392,22.512 11.5864,22.488 C10.0536,22.3848 8.5088,22.444 6.9336,22.444 L6.9336,28.1496 Z M16.4208,23.4296 C16.6504,25.2728 16.8488,26.872 17.06,28.5688 C18.8776,28.756 20.428,28.916 22.1184,29.0904 L22.1184,23.4296 L16.4208,23.4296 Z" id="Fill-4" fill="#FABDB8" mask="url(#mask-6di88snh2m-4)"></path>
                </g>
                <path d="M29.5932817,23.29128 C31.0900817,21.65448 32.7956817,19.66888 34.6364817,17.81928 L38.9404817,12.89288 C40.5572817,10.98648 42.0148817,9.26728 43.8180817,7.14088 C48.9828817,13.48808 53.5652817,19.11928 57.8908817,24.43608 C57.6868817,26.13848 57.4028817,27.44728 57.3932817,28.75848 C57.3460817,35.55928 57.3772817,42.36088 57.3572817,49.16248 C57.3540817,50.15368 57.2196817,51.14408 57.1356817,52.26968 L28.4332817,52.26968 C28.6772817,48.68008 28.8836817,45.30568 29.1420817,41.93448 L29.5932817,23.29128 Z M41.3492817,45.35048 C41.4444817,44.89528 41.5924817,44.56568 41.5660817,44.25128 C41.4660817,43.06728 41.3076817,41.88888 41.1764817,40.70808 C40.6820817,36.27528 40.5188817,36.13848 36.0348817,36.52808 C35.8028817,36.54808 35.5852817,36.72888 35.2076817,36.90728 C35.0844817,37.75608 34.9004817,38.66728 34.8276817,39.58728 C34.3436817,45.69208 34.8500817,46.15208 41.3492817,45.35048 L41.3492817,45.35048 Z M47.1060817,23.78248 C46.8156817,21.73128 46.6668817,20.22808 46.3764817,18.75288 C46.0684817,17.18728 44.7140817,17.35688 43.5764817,17.22968 C42.3716817,17.09448 41.6364817,17.64568 41.4652817,18.84408 C41.2324817,20.47128 41.0620817,22.10808 40.8196817,24.11768 C43.0548817,23.99848 44.9092817,23.89928 47.1060817,23.78248 L47.1060817,23.78248 Z" id="Fill-7" fill="#FABDB8"></path>
            </g>
        </g>
    </g>
</svg>