<svg xmlns="http://www.w3.org/2000/svg" xmlns:xlink="http://www.w3.org/1999/xlink" viewBox="0 0 83.6 56.9"><defs><clipPath id="clip-path" transform="translate(1 1)"><path d="M13.5,11.9H9.9c-1.4,5.9-.3,6.3,4.2,5.4Zm6.4,17.5,4.8.3c.9-5.9-.1-7.3-4.6-6.4a9.9,9.9,0,0,0-.2,1.7Zm4.3,7.2c-5.8-1.1-5.9-.7-5.5,4.8a4.1,4.1,0,0,0,.3.8h5.2ZM6.4,45.5l6.2-.7c-.2-3.7-.4-7-.6-10.4H6.4Zm23.3,3.6v3.4L0,54.9V52.1c.8-8.8,1.6-17.6,2.3-26.4L2.8,13,17,0l2,3.4,6,6.7c2.1,2.2,3.9,4.7,5.5,6.6Z" fill="none" clip-rule="evenodd"/></clipPath><clipPath id="clip-path-2" transform="translate(1 1)"><rect width="30.5" height="54.86" fill="none"/></clipPath><clipPath id="clip-path-3" transform="translate(1 1)"><path d="M72,27c.2,1.9.4,3.5.6,5.1l5.1.6V27Zm-9.5,4.7a24.9,24.9,0,0,0,3.7.2c.5,0,1.4-.3,1.5-.7a28.5,28.5,0,0,0,.4-4.2,1.3,1.3,0,0,0-1-.9H62.5Zm4.6-14.4,6.2.7c-.3-2.2-.5-4-.7-5.8H67.1Zm1.1,22H62.6c-1.3,5.6-.9,6.1,4.5,5.7l1.1-.2ZM67.3,3.8,81,4.3c1.5,16-.8,31.9.3,47.6-2.4.8-22.6.9-25.8.2l3.9-48,3.4-.5Z" fill="none" clip-rule="evenodd"/></clipPath><clipPath id="clip-path-4" transform="translate(1 1)"><rect x="55.5" y="3.6" width="26" height="48.99" fill="none"/></clipPath><clipPath id="clip-path-5" transform="translate(1 1)"><path d="M47.1,23.8c-.3-2.1-.4-3.6-.7-5s-1.7-1.4-2.8-1.6-2,.4-2.1,1.6-.4,3.3-.7,5.3ZM41.3,45.4a9.7,9.7,0,0,0,.3-1.1c-.1-1.2-.3-2.4-.4-3.6-.5-4.4-.7-4.6-5.2-4.2-.2,0-.4.2-.8.4s-.3,1.8-.4,2.7C34.3,45.7,34.9,46.2,41.3,45.4ZM29.6,23.3l5-5.5,4.3-4.9C40.6,11,42,9.3,43.8,7.1L57.9,24.4a39.6,39.6,0,0,0-.5,4.4c-.1,6.8,0,13.6,0,20.4,0,1-.2,1.9-.3,3.1H28.4c.3-3.6.5-7,.7-10.4Z" fill="none" clip-rule="evenodd"/></clipPath><clipPath id="clip-path-6" transform="translate(1 1)"><rect x="-251.4" y="-965.6" width="1920" height="1080" fill="none"/></clipPath></defs><g id="Layer_2" data-name="Layer 2"><g id="Layer_1-2" data-name="Layer 1"><g clip-path="url(#clip-path)"><g clip-path="url(#clip-path-2)"><rect width="32.5" height="56.86" fill="#fff"/></g></g><g clip-path="url(#clip-path-3)"><g clip-path="url(#clip-path-4)"><rect x="55.5" y="3.6" width="28" height="50.99" fill="#fff"/></g></g><g clip-path="url(#clip-path-5)"><g clip-path="url(#clip-path-6)"><rect x="28.4" y="7.1" width="31.5" height="47.13" fill="#fff"/></g></g></g></g></svg>