<svg xmlns="http://www.w3.org/2000/svg" xmlns:xlink="http://www.w3.org/1999/xlink" viewBox="0 0 56 77"><defs><clipPath id="clip-path" transform="translate(1 1)"><path d="M30.2,14.1a.6.6,0,0,0-.1.4.8.8,0,0,1-.2.5v.2a2.6,2.6,0,0,1-.3.8l-.3.6-.6.9-.3.5-.4.7-.3.5c-.1,0-.1,0-.1.1l-.5.6h0l.3-.2.9-.4.9-.2h.2c0,.2-.1.2-.2.3l-.4.2-.8.4-.3.2a1,1,0,0,0-.5.4l-.4.2a.1.1,0,0,1-.1.1l-.4.3a.2.2,0,0,0-.2.2l-1,1.2-.3.6-.3.6a1.7,1.7,0,0,1-.2.5c0,.1,0,.2-.1.2s-.1.1-.1.2a1.4,1.4,0,0,0-.2.7h0l-.7-.4a.2.2,0,0,1,0-.3c0-.1.1-.2.1-.4l.3-.8a.1.1,0,0,1,.1-.1l.3-.6a.9.9,0,0,1,.3-.6l.4-.6a.1.1,0,0,0,.1-.1l.4-.5h0l.3-.4a2.1,2.1,0,0,0,.4-.6c.2-.2.4-.4.4-.6s.3-.4.5-.6h.1l.3-.6a1.9,1.9,0,0,0,.2-.8c.1-.2.1-.4.2-.6s.1-.4.1-.6a5.3,5.3,0,0,1,.1-1.3v-.3h.1c-.1-.1-.1-.1,0-.2H28a.6.6,0,0,1,.1.4.4.4,0,0,1,.1.3c0,.2,0,.3.1.4v.3c0,.2,0,.3.1.4v-.2l.4-1,.2-.4a4.3,4.3,0,0,1,.1-.5h0c0-.3.1-.6.1-.8a4.3,4.3,0,0,1,.1-.5c0-.2,0-.3.1-.4v-.6a.6.6,0,0,1,.1-.4h.2l.3.3c.1.1.1.2.1.4s.1.2,0,.3h.1v1.2a2.2,2.2,0,0,1-.1.8M20.3,29.6a.7.7,0,0,0-.1.5v.1l-.6-1.6c-.1-.2-.1-.4-.2-.6l-.3-1.1a8.3,8.3,0,0,1-.4-1.5c-.1-.3-.1-.7-.2-1s-.1-.8-.1-1.1a2,2,0,0,1-.1-.7,3.8,3.8,0,0,1-.1-1V19.2c0-.3.1-.5.1-.8a3.4,3.4,0,0,1-.1-1,.8.8,0,0,1-.1-.4l-.3-1.2a.4.4,0,0,0-.1-.3,1.9,1.9,0,0,0-.2-.8v-.2l-.2-.2-.3-.8v-.2c-.1,0-.1-.2-.2-.2h0c-.1-.2,0-.4-.2-.6h0c0-.1.1-.1,0-.2s-.1,0,0-.1a.5.5,0,0,0-.2-.4l-.4-.5-.2-.3h0l-.6-.8-.3-.4L14.5,9a2.7,2.7,0,0,0-.7-.8h.3l.7.4.4.5.5.5h.2l.3.4.2.2h0V8.7h0V8.2c.1-.1,0-.1,0-.1a.7.7,0,0,1,.1-.5h0V7.2h0a.4.4,0,0,1,.1-.3.1.1,0,0,0,.1-.1h0c0-.1.1-.3,0-.4h.1c.1.1.1.2.1.4H17V7c.1.1,0,.2.1.3h0v2.8c0,.2,0,.3.1.4v.9h0c.1.1,0,.2.1.3v.7l.3,1,.3,1c0,.2.1.4.1.6h.1a4.1,4.1,0,0,1,.5-.9,2.4,2.4,0,0,1,.6-.9.7.7,0,0,1,.5-.4c.2.1.2.2.1.4a1.5,1.5,0,0,0-.3.7l-.2.2-.4.8c-.1.2-.2.3-.2.4l-.3.4c-.1.3-.2.5-.1.7a3.4,3.4,0,0,1,.1,1c.1.2,0,.4.1.6v1.2a.9.9,0,0,1-.1.5,6.1,6.1,0,0,0,.1,1.4v.6c0,.2.1.5.1.8v.2h0c.1.3.1.6.2.9s.1.4.1.6a2.4,2.4,0,0,0,.2.9c.1.3.1.5.2.8a3.1,3.1,0,0,0,.2.8,3.6,3.6,0,0,0,.2,1,2.5,2.5,0,0,1,.2.7.6.6,0,0,1,.1.4,1.5,1.5,0,0,1,.1.7m-1.1,2.6-1.8-.8-.4-.3-.9-.5h-.2l-.5-.3-.6-.4a2.1,2.1,0,0,1-.8-.6l-.4-.3c-.1-.2-.3-.2-.4-.4a1.1,1.1,0,0,1-.8-.1l-.3-.2H10.9c-.1,0-.6,0-.7.2H9.9c.2-.2.3-.4.5-.4h1.7l-.4-.5-.4-.3c0-.1-.1-.1-.1-.2H11c0-.1-.1-.1-.2-.2l-.5-.5c-.1-.1-.2-.2-.2-.3l-.2-.2H9.7c-.1-.1-.1-.3-.3-.3h0l-.7-.7H8.6l-.3-.5-.5-.6a.8.8,0,0,1-.2-.4H6.5c-.2-.1-.4.1-.6.1l-.6.2-.3.2H4.6v-.2A3.5,3.5,0,0,1,5.9,22l.5-.2h.5c0-.2,0-.3-.1-.4l-.4-.7H6.3c0-.1,0-.1-.1-.1a.4.4,0,0,0-.1-.3l-.3-.7-.2-.3c0-.2-.1-.3-.2-.5h0a1.4,1.4,0,0,1-.2-.6c0-.1-.1-.1-.1-.2a1.9,1.9,0,0,0-.2-.7v-.3h.5a.2.2,0,0,1,.2.2.4.4,0,0,0,.1.3l.2.2.2.5c.1,0,.2.3.2.4h0c.1.1.1.1.1.3h.1a.4.4,0,0,0,.1.3.4.4,0,0,1,.1.3h.1a1.5,1.5,0,0,0,.1-.7c.1-.2.1-.5.2-.7s.1.2.1.3a.4.4,0,0,1,.1.3v.8a.3.3,0,0,1,.1.2V20c0,.3.1.6.1.9v.2l.3.4.3.4c.1.1.1.2.2.2l.5.6.3.5a.1.1,0,0,1,.1.1c.1.1.1.3.3.3s.3.1.3.3l.3.3.4.3a.6.6,0,0,0-.1-.4V22.4a.6.6,0,0,1,.1-.4,2,2,0,0,1,.1-.7,4.3,4.3,0,0,0,.1-.5.4.4,0,0,1,.1-.3l.3-.7c0-.1.1-.1.1-.2h.1v.6a1.3,1.3,0,0,0-.1.6c-.1.2,0,.4,0,.6a3.1,3.1,0,0,0-.1,1v.3c0,.1-.1.2-.1.3a1.9,1.9,0,0,0,.1.8c0,.1,0,.2-.1.2v.2l.3.8.2.3h.2a.2.2,0,0,0,.2.2l.7.6.3.3c.1.1.2.1.1.2l.2.2h0l.3.3a1,1,0,0,0,.5.4,2.7,2.7,0,0,1,.8.7c.1,0,.1.1.1.2l.2.2c.1,0,.1.1.2.2l.4.3.3.2h.1a.1.1,0,0,1,.1.1l.4.2.5.3.5.3h.1l.3.2h.1l.5.6.6.7h-.1m16.5-21a4.3,4.3,0,0,0-.2-1.1,2.5,2.5,0,0,0-.4-.9,5.4,5.4,0,0,0-1.6-1.4H33l-1.9-.3a1,1,0,0,1-.5-.4l-.3-.5a1.4,1.4,0,0,0-1-.5,1.7,1.7,0,0,0-1.4.3,4.6,4.6,0,0,0-1.8,1.3,10.2,10.2,0,0,0-1.4,2.2,3.5,3.5,0,0,0-.6,1.4,13.6,13.6,0,0,0-.2,2,27.2,27.2,0,0,1-.1,2.8,2,2,0,0,1-.3,1.1l-.7.9-.5.6a5.6,5.6,0,0,0-.9,1.9,17,17,0,0,0-.4,2.2v.7c0,.1,0,.1.1.2a1.5,1.5,0,0,0,.9,1l.6.3a21.7,21.7,0,0,1-.7,2.4c-.1-.1-.1-.3-.2-.4a1.9,1.9,0,0,0-.2-.7c-.3-.9-.6-1.9-1-2.8a2.2,2.2,0,0,1-.1-.8,3.8,3.8,0,0,1-.1-1,5,5,0,0,1,.2-1.2l.3-.9a.6.6,0,0,0,.3-.6.8.8,0,0,0,.2-.4,2.5,2.5,0,0,0,.4-.7c0-.1,0-.3.1-.3a5.4,5.4,0,0,0,.5-1.1,6.9,6.9,0,0,0,.5-1.3,4.1,4.1,0,0,0-.1-2.2l-.6-1.2-1-1.7a1.9,1.9,0,0,1-.2-1.5,5,5,0,0,0,.4-1.3c0-.1,0-.1.1-.2A5.9,5.9,0,0,0,22,5.6a6.4,6.4,0,0,0,.3-2,2.9,2.9,0,0,0-.7-2l-.4-.5a5.4,5.4,0,0,0-1.8-1H17.3L16,.9,14.6,2A15.3,15.3,0,0,0,12,5.1a3.7,3.7,0,0,0-.7,2.3,2.7,2.7,0,0,0,.3,1.2l.8,1.2.7,1.1a3.2,3.2,0,0,1,.4,2.7l-.6,1.6a.9.9,0,0,1-.1.5,4.9,4.9,0,0,0-.1,1.2,2.4,2.4,0,0,0,.5,1.4v.2a4.2,4.2,0,0,0-1.4-.9l-.2-.2a.8.8,0,0,1-.4-.4,9,9,0,0,1-.6-2.2h0a.2.2,0,0,0,0-.3l-.3-.5a2,2,0,0,0-1.3-1.4,2.9,2.9,0,0,0-1.6-.2,3.6,3.6,0,0,0-2,1.1,11.2,11.2,0,0,0-1.7,2c-.1.3-.4.5-.6.8a23.5,23.5,0,0,0-1.9,2.5,8.7,8.7,0,0,0-1,2.5.8.8,0,0,0-.1.4,2.4,2.4,0,0,0,.5,1.6,2.7,2.7,0,0,0,1.4.7,2,2,0,0,0,1.1,0l.9-.2.3.2a2.2,2.2,0,0,1,.2,1.4,3.4,3.4,0,0,0,.1,1.4.4.4,0,0,0,.1.3,2.3,2.3,0,0,0,1.9,1.2h.4l.3.2.3.5.3.7a1.6,1.6,0,0,0,.7.9,4.9,4.9,0,0,0,2.3.8l2-.2a6.1,6.1,0,0,1,1.9,0,3.3,3.3,0,0,1,1.9.8,7.3,7.3,0,0,1,1.8,1.7A13.7,13.7,0,0,0,20,35.4a1,1,0,0,0,.7.4H21l1.2-.7a10.8,10.8,0,0,1,0-1.8c0-.1.1-.3.1-.4a4.9,4.9,0,0,1,.1-1.7,4.3,4.3,0,0,0,.1-.5,16.5,16.5,0,0,1,.6-3.2l.3-1a1.4,1.4,0,0,0,.2-.6h.1l.3.3a2.8,2.8,0,0,0,1.7,1.1,2,2,0,0,0,1.8-.5,2.6,2.6,0,0,0,.9-1.7v-.6c.1-.2.1-.3.3-.3l1-.4a3.9,3.9,0,0,0,1.5-.6l.8-1,.5-.8a5.9,5.9,0,0,0,.2-1.3,1.4,1.4,0,0,0,0-.9,5.3,5.3,0,0,1-.4-1.7,1.9,1.9,0,0,1,.3-1.3l.6-.7,1.5-1.7a3.9,3.9,0,0,0,1-2.7" fill="none" clip-rule="evenodd"/></clipPath><clipPath id="clip-path-2" transform="translate(1 1)"><rect x="-1161.8" y="-955.7" width="1920" height="1080" fill="none"/></clipPath><clipPath id="clip-path-3" transform="translate(1 1)"><path d="M35.3,43.1c-.2.3-.3.7-.5,1h0l-.3.4-.3.3h-.1a.1.1,0,0,1-.1.1c-.1,0-.2.2-.2.3l-.5.7h-.1l-.3.5h-.1c-.1,0-.1.1-.1.2a.3.3,0,0,1-.1.2l-.2.3h-.2c-.1,0-.1.2-.1.2l-.4.2-.6.3H31l-.4.2-.7.3h.2a.1.1,0,0,0-.1-.1c-.1,0-.1,0-.1-.1l.9-.5.2-.2c.3-.1.5-.4.7-.6a.1.1,0,0,1,.1-.1,6,6,0,0,0,.8-.8,6.1,6.1,0,0,1,.7-1c.1-.1.1-.3.3-.4a.8.8,0,0,1,.2-.4h0l.3-.4.4-.5.4-.5h.4v.2m-8.9-2c-.1.2-.2.3-.2.5s-.1.2-.2.3l-.3.4c-.1.1-.2.1-.2.2a.2.2,0,0,1-.2.2h-.1c-.1,0-.1.1-.1.2H25c0,.1,0,.2-.1.2h-.1c-.1,0-.1,0-.1.1l-.3.5c-.1.1-.2.2-.2.3h-.3c0,.1-.1.2-.2.3l-.7.5a.1.1,0,0,1-.1.1l-.4.3a.1.1,0,0,1-.1.1h-.1a1,1,0,0,1-.5.4c0,.1-.1.1-.2.2l-.3.2-.3.2-.2.2c-.1,0-.2,0-.2.1l-.3.2-.4.2-.3.2-.7.4h-.1l-.4.2-1,.3-.6.2h-.2c0-.2-.1-.3-.1-.4a.1.1,0,0,1,.1-.1l.8-.2a2,2,0,0,0,.8-.4h.3l1.3-.7.8-.6,1-.7.8-.6.5-.4h0l.3-.2.3-.3c.1,0,.2-.2.3-.3h.1a.1.1,0,0,0,.1-.1h0c.2,0,.2-.2.3-.3l.2-.2.2-.2h.2c0-.1.1-.2.1-.3h.2c.2,0,.2-.2.3-.2a.1.1,0,0,0,.1-.1h.1c.1-.1.1-.1.1-.3h.1c.1.1.1,0,.1,0h0c.1,0,.1,0,.1-.1h.1a.1.1,0,0,0,.1-.1c0-.2.2-.2.2-.4s.1.2-.1.4m-9.8,4.2.5-.3,1.1-.7.3-.2,1.4-.9.6-.4.7-.6.4-.2c.1-.2.3-.2.4-.3l.3-.3.2-.2.7-.5.3-.3h.2l.6-.5.5-.3.5-.3h.2c0-.1.1-.1.2-.2s0,.2-.1.2h-.1c0,.1,0,.2-.1.2a.1.1,0,0,1-.1.1h-.1c-.1.1-.2.1-.2.2l-.5.5h-.1a1.2,1.2,0,0,0-.5.5l-.5.4h0l-.2.2H23v.2h-.2c-.1.1-.3.2-.3.3h-.2l-.7.7-.6.4-.5.3-.9.5-.4.3H19l-.2.2-1.1.7-.3.2-.9.3c0-.2.1-.3.1-.5M53.9,74.5a4.7,4.7,0,0,0-1-1c-.2-.1-.2-.3-.2-.6a.9.9,0,0,0-.1-.5c-.2-.6-.3-1.3-.5-1.9a4.2,4.2,0,0,0-1-1.7,3.6,3.6,0,0,1-.7-1,1.8,1.8,0,0,0-.5-.7l-.5-.4-.6-.7a5,5,0,0,0-.8-.7l-1-1-1.6-1.2a2.7,2.7,0,0,1-.8-.7,3,3,0,0,0-1.4-1.1l-1.1-.8a4.2,4.2,0,0,0-1.4-.9l-1.3-.5-.8-.2a3.5,3.5,0,0,1-1.7-.6c-.2-.2-.4-.4-.4-.6s-.3-1-.5-1.5-.1-.7-.2-1.1V53.8c0-.8.1-1.5.1-2.3a.4.4,0,0,1,.1-.3,4.1,4.1,0,0,0,.1-1.1V48.3c0-.1.1-.2.1-.4a12.9,12.9,0,0,0,.4-1.9,14.9,14.9,0,0,0,.2-2.1v-.3a.4.4,0,0,0,.1-.3,4.5,4.5,0,0,1-.1-1.1v-.5a.4.4,0,0,1-.1-.3,2.9,2.9,0,0,0-.2-.9c0-.2-.1-.5-.1-.7a1.3,1.3,0,0,0-.1-.6c0-.3-.1-.6-.1-.9l-.3-.8-.6-1.2a9.4,9.4,0,0,0-.9-1.2,8,8,0,0,0-2.7-1.8L31,33l-1.6-.2h-2l-1.6.4a12.7,12.7,0,0,0-3.2,1.3c0,.1-.1.1-.2.1h0l-1.2.8h.1c0,.2-.2.3-.3.4a7.5,7.5,0,0,0-1.5,1.6L18,39.7a.8.8,0,0,0-.2.4l-1.2,2-.9,1.7a7.4,7.4,0,0,0-.8,2.9,7.2,7.2,0,0,0,.3,2.5,6.6,6.6,0,0,0,.5,1.5l.9,1.4h.1a.4.4,0,0,0,.1.3.3.3,0,0,1,.1.2H17c0,.1.1.2.2.3h0l.2.2a.1.1,0,0,0,.1.1h0a5.2,5.2,0,0,0,1.1,1c.5.4,1.1.7,1.5,1.1a13.4,13.4,0,0,0,2.4,1.2,18.1,18.1,0,0,0,3.1.9l2.2.5,1.4.3h1.2a5.5,5.5,0,0,1,1.8.2l1.4.3h.3l.8.2c.7.1,1.5.5,2.3.7h.3l.5.2a6.4,6.4,0,0,0,1.8.6,11.3,11.3,0,0,1,2.4.8,2.3,2.3,0,0,1,1,.7,9.4,9.4,0,0,0,1.2.9l1.4.9L46.7,65l.5.6.9.8a5.2,5.2,0,0,1,1,1.1l.9.9.5.6a6.9,6.9,0,0,1,1,1.9,6.5,6.5,0,0,0,.4,1.3,4.5,4.5,0,0,1,.3,1.1,1.6,1.6,0,0,0,.4.7l.7.8.3.2c.1,0,.3,0,.3-.2a.2.2,0,0,0,0-.3" fill="none" clip-rule="evenodd"/></clipPath><clipPath id="clip-path-4" transform="translate(1 1)"><rect x="14.9" y="32.7" width="39.1" height="42.26" fill="none"/></clipPath></defs><g id="Layer_2" data-name="Layer 2"><g id="Layer_1-2" data-name="Layer 1"><g clip-path="url(#clip-path)"><g clip-path="url(#clip-path-2)"><rect width="37.7" height="37.9" fill="#fff"/></g></g><g clip-path="url(#clip-path-3)"><g clip-path="url(#clip-path-4)"><rect x="14.9" y="32.8" width="41.1" height="44.26" fill="#fff"/></g></g></g></g></svg>