<?xml version="1.0" encoding="utf-8"?>
<!-- Generator: Adobe Illustrator 25.4.1, SVG Export Plug-In . SVG Version: 6.00 Build 0)  -->
<svg version="1.1" id="Layer_1" xmlns="http://www.w3.org/2000/svg" xmlns:xlink="http://www.w3.org/1999/xlink" x="0px" y="0px"
	 viewBox="0 0 82 56" style="enable-background:new 0 0 82 56;" xml:space="preserve">
<style type="text/css">
	.st0{filter:url(#Adobe_OpacityMaskFilter);}
	.st1{fill-rule:evenodd;clip-rule:evenodd;fill:#FFFFFF;}
	
		.st2{mask:url(#mask-6di88snh2m-2_00000092442980780317763150000007411467382738671244_);fill-rule:evenodd;clip-rule:evenodd;fill:#FABDB8;}
	.st3{filter:url(#Adobe_OpacityMaskFilter_00000168837838931064272820000003381138115918858633_);}
	
		.st4{mask:url(#mask-6di88snh2m-4_00000085957517685108100500000017967280948648515228_);fill-rule:evenodd;clip-rule:evenodd;fill:#FABDB8;}
	.st5{fill-rule:evenodd;clip-rule:evenodd;fill:#FABDB8;}
</style>
<g id="Desktop">
	<g id="Interactive-map-all-opened" transform="translate(-251.000000, -965.000000)">
		<g id="Group-9" transform="translate(251.446478, 965.602832)">
			<g id="Group-3">
				<g id="Clip-2">
				</g>
				<defs>
					<filter id="Adobe_OpacityMaskFilter" filterUnits="userSpaceOnUse" x="0" y="0" width="30.5" height="54.9">
						<feColorMatrix  type="matrix" values="1 0 0 0 0  0 1 0 0 0  0 0 1 0 0  0 0 0 1 0"/>
					</filter>
				</defs>
				
					<mask maskUnits="userSpaceOnUse" x="0" y="0" width="30.5" height="54.9" id="mask-6di88snh2m-2_00000092442980780317763150000007411467382738671244_">
					<g class="st0">
						<polygon id="path-6di88snh2m-1_00000103967690445219844690000001704436411318972563_" class="st1" points="0,0 30.5,0 
							30.5,54.9 0,54.9 						"/>
					</g>
				</mask>
				<path id="Fill-1" class="st2" d="M29.7,49.1v3.4C19.7,53.3,10,54.1,0,54.9c0-1.1-0.1-1.9,0-2.7c0.8-8.8,1.5-17.6,2.3-26.4
					L2.8,13c4.3-4,9-8.2,14.2-13c0.7,1.2,1.4,2.3,2,3.4l6,6.8c2.1,2.2,3.9,4.6,5.5,6.6L29.7,49.1z M6.4,45.5
					c2.2-0.2,4.1-0.4,6.2-0.6c-0.2-3.7-0.4-7-0.6-10.4H6.4V45.5z M24.2,36.6c-5.9-1.1-5.9-0.7-5.6,4.8c0,0.2,0.2,0.4,0.4,0.8h5.2
					V36.6z M19.9,29.4c1.8,0.1,3.3,0.2,4.8,0.3c0.9-5.9-0.1-7.3-4.6-6.4c-0.1,0.5-0.2,1.1-0.2,1.7C19.9,26.3,19.9,27.7,19.9,29.4
					L19.9,29.4z M13.5,11.9H9.9c-1.3,5.9-0.3,6.3,4.2,5.4C13.9,15.5,13.7,13.7,13.5,11.9L13.5,11.9z"/>
			</g>
			<g id="Group-6" transform="translate(55.539842, 3.581040)">
				<g id="Clip-5">
				</g>
				<defs>
					
						<filter id="Adobe_OpacityMaskFilter_00000124147639390180624650000007372385236329598882_" filterUnits="userSpaceOnUse" x="0" y="0" width="26" height="49">
						<feColorMatrix  type="matrix" values="1 0 0 0 0  0 1 0 0 0  0 0 1 0 0  0 0 0 1 0"/>
					</filter>
				</defs>
				
					<mask maskUnits="userSpaceOnUse" x="0" y="0" width="26" height="49" id="mask-6di88snh2m-4_00000085957517685108100500000017967280948648515228_">
					<g style="filter:url(#Adobe_OpacityMaskFilter_00000124147639390180624650000007372385236329598882_);">
						<polygon id="path-6di88snh2m-3_00000052819276406898797990000005151633454386376378_" class="st1" points="0,0 26,0 26,49 
							0,49 						"/>
					</g>
				</mask>
				<path id="Fill-4" class="st4" d="M11.7,0.2c4.5,0.2,9,0.3,13.8,0.5c1.5,16-0.9,31.9,0.2,47.6C23.4,49.1,3.1,49.2,0,48.5
					c1.3-16,2.6-32,3.8-48C5.1,0.3,6,0.2,7.3,0L11.7,0.2z M12.6,35.7H7.1c-1.3,5.6-0.9,6.1,4.5,5.8c0.3,0,0.6-0.1,1.1-0.2V35.7z
					 M11.6,13.8c2,0.2,4,0.4,6.1,0.6c-0.2-2.2-0.4-4-0.6-5.8h-5.5V13.8z M6.9,28.1c1.5,0.1,2.6,0.2,3.8,0.2c0.5,0,1.4-0.4,1.4-0.7
					c0.3-1.4,0.4-2.8,0.4-4.2c0-0.3-0.6-0.9-1-0.9c-1.5-0.1-3.1,0-4.7,0V28.1z M16.4,23.4c0.2,1.8,0.4,3.4,0.6,5.1
					c1.8,0.2,3.4,0.3,5.1,0.5v-5.7H16.4z"/>
			</g>
			<path id="Fill-7" class="st5" d="M29.6,23.3c1.5-1.6,3.2-3.6,5-5.5l4.3-4.9c1.6-1.9,3.1-3.6,4.9-5.8c5.2,6.3,9.7,12,14.1,17.3
				c-0.2,1.7-0.5,3-0.5,4.3c0,6.8,0,13.6,0,20.4c0,1-0.1,2-0.2,3.1H28.4c0.2-3.6,0.5-7,0.7-10.3L29.6,23.3z M41.3,45.4
				c0.1-0.5,0.2-0.8,0.2-1.1c-0.1-1.2-0.3-2.4-0.4-3.5c-0.5-4.4-0.7-4.6-5.1-4.2c-0.2,0-0.4,0.2-0.8,0.4c-0.1,0.8-0.3,1.8-0.4,2.7
				C34.3,45.7,34.9,46.2,41.3,45.4L41.3,45.4z M47.1,23.8c-0.3-2.1-0.4-3.6-0.7-5c-0.3-1.6-1.7-1.4-2.8-1.5
				c-1.2-0.1-1.9,0.4-2.1,1.6c-0.2,1.6-0.4,3.3-0.6,5.3C43.1,24,44.9,23.9,47.1,23.8L47.1,23.8z"/>
		</g>
	</g>
</g>
</svg>
