<svg xmlns="http://www.w3.org/2000/svg" xmlns:xlink="http://www.w3.org/1999/xlink" viewBox="0 0 95.7 57"><defs><clipPath id="clip-path" transform="translate(1 1)"><path d="M36.8,47.1c-.9-3.5-3-5.7-6.6-5.6s-7.3,2.1-8.3,6.2c-.3.2-.4.3-.6.3L4.4,49c-2.2.1-2.7-.3-3.1-2.4S.3,40.5,0,37.5s.6-2.9,2.8-3.3l14.7-2.4a30.7,30.7,0,0,0-.5-3.4c-1-3.6-2.1-7.2-3.2-10.7,0-.2-.1-.3-.1-.5-1-3.9-1.4-4.9,3.2-6.4S24,8.2,27.7,7.2s8.7-2.1,13.1-3S52.5,1.8,58.3.9s9-.7,13.5-.9c2.3-.1,3.1.7,3.5,3,1,5.4,1.9,10.8,2.8,16.2,0,.2.2.4.3.8l7.7-.6,4.8-.2c2,.1,2.7.8,2.7,2.8.2,6-.9,11.9-1.8,17.7-.2,1.3-.7,2.5-2.1,2.6L79.1,43.6c-.8-5.6-4.3-8.9-8.9-8.8-2.4,0-3.6,1.7-5.2,3s-1.1,3.8-1.3,6.1L50.5,45.3,36.8,47.1M51.1,23.7c6-.8,11.7-.7,17.1-3.5-.4-4.1-2.1-7.9-3.3-12C59.1,9.3,53.5,10,48.2,12.8c1,3.6,1.9,7.2,2.9,10.9M40,26.2a21,21,0,0,0-2.7-9A2.3,2.3,0,0,0,35.7,16l-6.8.6V30.1A25.1,25.1,0,0,0,40,26.2" fill="none" clip-rule="evenodd"/></clipPath><clipPath id="clip-path-2" transform="translate(1 1)"><rect width="93.7" height="48.98" fill="none"/></clipPath><clipPath id="clip-path-3" transform="translate(1 1)"><path d="M29.2,55c-2.7,0-5.1-1.8-5.5-4s1.1-6.9,4.1-7.6c1.3-.2,2.9-1.4,4.1.3.1.2.4.2.6.2a3.1,3.1,0,0,1,2.8,4.2,21.3,21.3,0,0,0-.3,2.5,2,2,0,0,1-.2,1.1A7.6,7.6,0,0,1,29.2,55m2.7-9.9a5.2,5.2,0,0,0-1,4.8,1.9,1.9,0,0,1-1.2,2.7c-.2-.8-.4-1.5-.5-2.1l-1.9,1.8c2.4,1.4,4.7.9,6.1-1.3a4.5,4.5,0,0,0-1.5-5.9" fill="none" clip-rule="evenodd"/></clipPath><clipPath id="clip-path-4" transform="translate(1 1)"><rect x="-1469.9" y="-964" width="1920" height="1080" fill="none"/></clipPath><clipPath id="clip-path-5" transform="translate(1 1)"><path d="M66.5,41.7c.2-4,2-5.2,5-4.1A17,17,0,0,1,75,39.5c1.4,1.1,1.2,4.2-.4,5.8a15.6,15.6,0,0,1-2,1.6c-1.6.9-3.2.8-4.2-.8s-1.4-3.4-1.9-4.4m4.7-.1,2-.5L72,44.5l-1.3-.8-1.1,1.9A1.6,1.6,0,0,0,72,46c1.6-1,2.7-2.3,2.6-4.2s-1-2.4-2.6-3l-.8,2.8" fill="none" clip-rule="evenodd"/></clipPath></defs><g id="Layer_2" data-name="Layer 2"><g id="Layer_1-2" data-name="Layer 1"><g clip-path="url(#clip-path)"><g clip-path="url(#clip-path-2)"><rect width="95.7" height="50.98" fill="#fff"/></g></g><g clip-path="url(#clip-path-3)"><g clip-path="url(#clip-path-4)"><rect x="23.2" y="42" width="14.7" height="15.05" fill="#fff"/></g></g><g clip-path="url(#clip-path-5)"><g clip-path="url(#clip-path-4)"><rect x="66.5" y="36.5" width="11.9" height="13.35" fill="#fff"/></g></g></g></g></svg>