<svg xmlns="http://www.w3.org/2000/svg" xmlns:xlink="http://www.w3.org/1999/xlink" viewBox="0 0 114.8 108.7"><defs><clipPath id="clip-path" transform="translate(20.9 31.2)"><path d="M25.6,5.9l1.5,3.7.5.2H48.3a11.7,11.7,0,0,0-.5-1.1c-.5-1.4-1.1-2.7-1.7-4.1A1.6,1.6,0,0,1,47,2.3L52.6.1a1.5,1.5,0,0,1,2,.8c.4.8,0,1.6-1,2L49.3,4.6C51,8.8,52.8,12.9,54.5,17A14.4,14.4,0,0,1,72.3,27a14.2,14.2,0,1,1-20.5-8.8l-1.3-3.1c-.1-.1-.1-.2-.2-.4l-3.9,4.5L35.5,31.5a1.8,1.8,0,0,1-1.5.7H28.8c-.4,0-.5.1-.5.4A14.2,14.2,0,1,1,11.7,16.7a13.9,13.9,0,0,1,8.3,1h.4l.2-.2,3.8-6.1a.6.6,0,0,0,0-.6L22.6,6.3a.5.5,0,0,0-.6-.4H20.4a1.4,1.4,0,0,1-1.5-1.4A1.5,1.5,0,0,1,20.4,3h8.9a1.5,1.5,0,0,1,1.5,1.5,1.5,1.5,0,0,1-1.5,1.4H25.6m30.1,14,1.8,4.3c.8,2,1.6,4,2.5,6a1.5,1.5,0,0,1-1.5,2.1,1.7,1.7,0,0,1-1.3-1c-1.1-2.8-2.3-5.6-3.4-8.3l-.9-2a11.3,11.3,0,0,0-4.6,14.4A11.5,11.5,0,0,0,63,41.1a11.2,11.2,0,0,0,6-14.5,11,11,0,0,0-13.3-6.7m-36.9.5a11.3,11.3,0,0,0-13,2.8A11.2,11.2,0,0,0,18.6,41c3.6-1.5,7.1-6.2,6.6-8.8h-11a1.5,1.5,0,0,1-1.6-1.1,2.4,2.4,0,0,1,.3-1.4l5.9-9.3m9.6-7.6c2.1,5.1,4.2,10.1,6.2,15.2L48.1,12.8H28.4m-2.5,1.8-3,4.8a15.5,15.5,0,0,1,3.7,4.4,15,15,0,0,1,1.8,5.4H32c-2-4.8-4-9.7-6.1-14.6m-.6,14.7c0-2.5-2.1-6.2-4-7.3l-4.6,7.3h8.6" fill="none" clip-rule="evenodd"/></clipPath><clipPath id="clip-path-2" transform="translate(20.9 31.2)"><rect x="-1307" y="-974.9" width="1920" height="1080" fill="none"/></clipPath></defs><g id="Layer_2" data-name="Layer 2"><g id="Layer_1-2" data-name="Layer 1"><g clip-path="url(#clip-path)"><g clip-path="url(#clip-path-2)"><rect x="-2" y="-21.9" width="77" height="90.14" transform="translate(20.6 77) rotate(-64)" fill="#fff"/></g></g></g></g></svg>