<svg xmlns="http://www.w3.org/2000/svg" xmlns:xlink="http://www.w3.org/1999/xlink" viewBox="0 0 69.2 57"><defs><clipPath id="clip-path" transform="translate(1 1)"><path d="M53.4,35.7c.2-1.3.5-2.5.6-3.8,1-6.4,1.9-13,3-19.4.7-3.6,3.2-4.3,5.7-1.7s5.1,7.2,4.4,11.8c-1.2,8.9-3.6,17.5-8.3,25.3a14.4,14.4,0,0,1-11.1,6.9c-6.4.6-12.7.1-18.7-2.8s-10.2-4.4-15.2-6.9a17.7,17.7,0,0,1-5.6-4.6c-1.8-2.2-.8-4.3,2.1-4.5a10.9,10.9,0,0,1,5.1.6c4.2,1.7,8.2,3.8,12.3,5.7l6.1,2.5.4-.7c-.4-.5-.7-1.2-1.2-1.5a97.4,97.4,0,0,0-9.3-5.4c-5-2.4-10.3-4.2-15.3-6.6a32.1,32.1,0,0,1-6.6-4.5A3.8,3.8,0,0,1,.2,21.8c.7-1.9,2.3-2.3,4-2.4,4.2-.3,7.8,1.4,11.5,3,6,2.6,11.1,6.7,16.4,10.4a7.9,7.9,0,0,0,2.7,1.5c-2.4-2.6-4.7-5.2-7.2-7.7s-6.9-6.4-10.1-9.9a33,33,0,0,1-4.4-6.6,6.6,6.6,0,0,1-.7-3.3c.4-3.4,1.9-6.8,6.5-4.2a29.2,29.2,0,0,1,6.3,4.8A87.6,87.6,0,0,1,38.7,25.3a44,44,0,0,0,3,4.3c.3-2.9-.6-4.9-1.3-7-1.5-4.8-3.1-9.7-4.4-14.7a11,11,0,0,1,.1-5.1C36.7.3,38.4-.4,40.8.2a11.6,11.6,0,0,1,8.5,8.5,54,54,0,0,1,1.5,8.8c.5,4.9.8,9.8,1.1,14.8.1,1.1-.1,2.2-.1,3.4h1.6" fill="none" clip-rule="evenodd"/></clipPath><clipPath id="clip-path-2" transform="translate(1 1)"><rect width="67.2" height="55" fill="none"/></clipPath></defs><g id="Layer_2" data-name="Layer 2"><g id="Layer_1-2" data-name="Layer 1"><g clip-path="url(#clip-path)"><g clip-path="url(#clip-path-2)"><rect width="69.2" height="57" fill="#fff"/></g></g></g></g></svg>