<svg xmlns="http://www.w3.org/2000/svg" viewBox="0 0 81.6 54.9"><g id="Layer_2" data-name="Layer 2"><g id="Layer_1-2" data-name="Layer 1"><path d="M81,4.3,67.3,3.8l-4.5-.2-3.4.5c-.6,6.7-1.1,13.5-1.6,20.2L43.8,7.1C42,9.3,40.6,11,38.9,12.9l-4.3,4.9-4.2,4.6V16.7c-1.6-1.9-3.4-4.4-5.5-6.6L19,3.4,17,0,2.8,13,2.3,25.7C1.6,34.5.8,43.3,0,52.1v2.8l29.7-2.4v-.2H56.8c5.5.5,22.3.3,24.5-.4C80.2,36.2,82.5,20.3,81,4.3ZM6.4,45.5V34.4H12c.2,3.4.4,6.7.6,10.4ZM9.9,11.9h3.6l.6,5.4C9.6,18.2,8.5,17.8,9.9,11.9ZM24.2,42.2H19a4.1,4.1,0,0,1-.3-.8c-.4-5.5-.3-5.9,5.5-4.8Zm.5-12.5-4.8-.3V25a9.9,9.9,0,0,1,.2-1.7C24.6,22.4,25.6,23.8,24.7,29.7Zm32.9-2.9c-.1.7-.1,1.4-.2,2.1h0A13.6,13.6,0,0,1,57.6,26.8ZM41.3,45.4c-6.4.8-7,.3-6.5-5.8.1-.9.3-1.8.4-2.7s.6-.4.8-.4c4.5-.4,4.7-.2,5.2,4.2.1,1.2.3,2.4.4,3.6A9.7,9.7,0,0,1,41.3,45.4Zm-.5-21.3c.3-2,.4-3.6.7-5.3s.9-1.7,2.1-1.6,2.5,0,2.8,1.6.4,2.9.7,5ZM67.1,12.2h5.5c.2,1.8.4,3.6.7,5.8l-6.2-.7ZM62.5,26h4.6a1.3,1.3,0,0,1,1,.9,28.5,28.5,0,0,1-.4,4.2c-.1.4-1,.7-1.5.7a24.9,24.9,0,0,1-3.7-.2Zm5.7,18.8-1.1.2c-5.4.4-5.8-.1-4.5-5.7h5.6Zm9.5-12.1-5.1-.6c-.2-1.6-.4-3.2-.6-5.1h5.7Z" fill="#fff" fill-rule="evenodd"/></g></g></svg>