<?xml version="1.0" encoding="utf-8"?>
<!-- Generator: Adobe Illustrator 25.4.1, SVG Export Plug-In . SVG Version: 6.00 Build 0)  -->
<svg version="1.1" id="Layer_1" xmlns="http://www.w3.org/2000/svg" xmlns:xlink="http://www.w3.org/1999/xlink" x="0px" y="0px"
	 viewBox="0 0 53.9 74.9" style="enable-background:new 0 0 53.9 74.9;" xml:space="preserve">
<style type="text/css">
	.st0{fill:#FFFFFF;}
</style>
<path class="st0" d="M53.8,74.4c-0.3-0.4-0.6-0.7-1-1c-0.2-0.1-0.2-0.3-0.2-0.6c0-0.2,0-0.3-0.1-0.5c-0.2-0.6-0.3-1.3-0.5-1.9
	s-0.5-1.2-1-1.7c-0.3-0.3-0.5-0.6-0.7-1c-0.1-0.3-0.3-0.5-0.5-0.7l-0.5-0.4l-0.6-0.7c-0.2-0.3-0.5-0.5-0.8-0.7l-1-1L45.3,63
	c-0.3-0.2-0.6-0.4-0.8-0.7c-0.3-0.5-0.8-0.9-1.4-1.1L42,60.4c-0.4-0.4-0.9-0.7-1.4-0.9L39.3,59l-0.8-0.2c-0.6,0-1.2-0.3-1.7-0.6
	c-0.2-0.2-0.4-0.4-0.4-0.6s-0.3-1-0.5-1.5c-0.2-0.5-0.1-0.7-0.2-1.1v-1.3c0-0.8,0.1-1.5,0.1-2.3c0-0.1,0-0.2,0.1-0.3
	C36,50.7,36,50.4,36,50v-1.8c0-0.1,0.1-0.2,0.1-0.4c0.2-0.6,0.3-1.3,0.4-1.9c0.1-0.7,0.2-1.4,0.2-2.1v-0.3c0.1-0.1,0.1-0.2,0.1-0.3
	c-0.1-0.4-0.1-0.7-0.1-1.1v-0.5c-0.1-0.1-0.1-0.2-0.1-0.3c0-0.3-0.1-0.6-0.2-0.9c0-0.2-0.1-0.5-0.1-0.7s0-0.4-0.1-0.6
	c0-0.3-0.1-0.6-0.1-0.9l-0.3-0.8l-0.6-1.2c-0.3-0.4-0.6-0.8-0.9-1.2c-0.8-0.8-1.7-1.4-2.7-1.8l-0.7-0.3l-1.6-0.2h-2l-1.6,0.4
	c-1.1,0.3-2.2,0.7-3.2,1.3c0,0.1-0.1,0.1-0.2,0.1l-0.2,0.2c0-0.5-0.1-1,0-1.5c0-0.1,0.1-0.3,0.1-0.4c-0.1-0.6,0-1.1,0.1-1.7
	c0-0.2,0.1-0.3,0.1-0.5c0.1-1.1,0.3-2.2,0.6-3.2l0.3-1c0.1-0.2,0.2-0.4,0.2-0.6h0.1l0.3,0.3c0.4,0.6,1,1,1.7,1.1
	c0.6,0.1,1.3,0,1.8-0.5c0.5-0.4,0.8-1,0.9-1.7v-0.6c0.1-0.2,0.1-0.3,0.3-0.3l1-0.4c0.5-0.1,1-0.3,1.5-0.6l0.8-1l0.5-0.8
	c0.1-0.4,0.2-0.9,0.2-1.3c0.1-0.3,0.1-0.6,0-0.9c-0.2-0.5-0.4-1.1-0.4-1.7c-0.1-0.5,0-0.9,0.3-1.3l0.6-0.7l1.5-1.7
	c0.7-0.7,1-1.7,1-2.7c0-0.3-0.1-0.7-0.2-1c-0.1-0.3-0.2-0.6-0.4-0.9c-0.4-0.6-1-1-1.6-1.4h-0.5L31,7.4c-0.2-0.1-0.4-0.2-0.5-0.4
	l-0.3-0.5C30,6.2,29.6,6,29.2,6c-0.5-0.1-1,0-1.4,0.3C27.1,6.6,26.5,7,26,7.6c-0.6,0.7-1,1.4-1.4,2.2c-0.3,0.4-0.5,0.9-0.6,1.4
	c-0.1,0.7-0.2,1.3-0.2,2c0,0.9,0,1.9-0.1,2.8c0,0.4-0.1,0.8-0.3,1.1L22.7,18l-0.5,0.6c-0.4,0.6-0.7,1.2-0.9,1.9
	c-0.2,0.7-0.3,1.5-0.4,2.2v0.7c0,0.1,0,0.1,0.1,0.2c0.1,0.5,0.5,0.8,0.9,1l0.6,0.3c-0.2,0.8-0.4,1.6-0.7,2.4
	c-0.1-0.1-0.1-0.3-0.2-0.4c0-0.2-0.1-0.5-0.2-0.7c-0.3-0.9-0.6-1.9-1-2.8c-0.1-0.3-0.1-0.5-0.1-0.8c-0.1-0.3-0.1-0.7-0.1-1
	c0-0.4,0.1-0.8,0.2-1.2l0.3-0.9c0.2-0.1,0.3-0.4,0.3-0.6c0.1-0.1,0.2-0.3,0.2-0.4c0.2-0.2,0.3-0.4,0.4-0.7c0-0.1,0-0.3,0.1-0.3
	c0.2-0.3,0.4-0.7,0.5-1.1c0.2-0.4,0.4-0.9,0.5-1.3c0.2-0.7,0.1-1.5-0.1-2.2L22,11.7L21,10c-0.3-0.5-0.3-1-0.2-1.5
	c0.2-0.4,0.3-0.9,0.4-1.3c0-0.1,0-0.1,0.1-0.2c0.3-0.5,0.5-1,0.6-1.5c0.2-0.6,0.3-1.3,0.3-2c0-0.7-0.2-1.4-0.7-2L21.1,1
	c-0.5-0.4-1.1-0.8-1.8-1h-2.1l-1.3,0.8l-1.4,1.1c-1,0.9-1.9,2-2.6,3.1c-0.5,0.7-0.7,1.5-0.7,2.3c0,0.4,0.1,0.8,0.3,1.2l0.8,1.2
	l0.7,1.1c0.5,0.8,0.7,1.8,0.4,2.7l-0.6,1.6c0,0.2,0,0.3-0.1,0.5c-0.1,0.4-0.1,0.8-0.1,1.2c0,0.5,0.2,1,0.5,1.4v0.2
	c-0.4-0.4-0.9-0.7-1.4-0.9l-0.2-0.2c-0.2-0.1-0.3-0.2-0.4-0.4c-0.3-0.7-0.5-1.4-0.6-2.2c0.1-0.1,0.1-0.2,0-0.3l-0.3-0.5
	c-0.2-0.7-0.7-1.2-1.3-1.4c-0.5-0.2-1.1-0.3-1.6-0.2c-0.8,0.1-1.5,0.5-2,1.1c-0.6,0.6-1.2,1.3-1.7,2c-0.1,0.3-0.4,0.5-0.6,0.8
	c-0.7,0.8-1.3,1.6-1.9,2.5c-0.5,0.8-0.8,1.6-1,2.5C0,21.3,0,21.5,0,21.6c0,0.6,0.1,1.1,0.5,1.6c0.4,0.4,0.9,0.6,1.4,0.7
	C2.3,24,2.6,24,3,23.9l0.9-0.2l0.3,0.2c0.2,0.4,0.3,0.9,0.2,1.4c-0.1,0.5,0,0.9,0.1,1.4c0,0.1,0,0.2,0.1,0.3
	c0.4,0.7,1.1,1.2,1.9,1.2h0.4l0.3,0.2l0.3,0.5l0.3,0.7c0.1,0.4,0.4,0.7,0.7,0.9c0.7,0.5,1.5,0.7,2.3,0.8l2-0.2
	c0.6-0.1,1.3-0.1,1.9,0c0.7,0.1,1.4,0.3,1.9,0.8c0.7,0.5,1.3,1,1.8,1.7c0.5,0.6,1,1.2,1.5,1.7c0.2,0.2,0.4,0.4,0.7,0.4h0.3
	c-0.6,0.5-1.1,1-1.5,1.6l-1.5,2.3c-0.1,0.1-0.2,0.3-0.2,0.4l-1.2,2l-0.9,1.7c-0.5,0.9-0.7,1.9-0.8,2.9c0,0.8,0.1,1.7,0.3,2.5
	c0.1,0.5,0.3,1,0.5,1.5l0.9,1.4h0.1c0,0.1,0,0.2,0.1,0.3c0.1,0.1,0.1,0.1,0.1,0.2h0.1c0,0.1,0.1,0.2,0.2,0.3l0.2,0.2
	c0,0.1,0,0.1,0.1,0.1c0.3,0.4,0.7,0.7,1.1,1c0.5,0.4,1.1,0.7,1.5,1.1c0.8,0.5,1.6,0.9,2.4,1.2c1,0.4,2,0.7,3.1,0.9l2.2,0.5l1.4,0.3
	h1.2c0.6,0,1.2,0,1.8,0.2l1.4,0.3h0.3l0.8,0.2c0.7,0.1,1.5,0.5,2.3,0.7h0.3l0.5,0.2c0.6,0.3,1.2,0.5,1.8,0.6
	c0.8,0.2,1.6,0.4,2.4,0.8c0.4,0.1,0.7,0.4,1,0.7c0.4,0.3,0.8,0.6,1.2,0.9l1.4,0.9l1.1,1.3l0.5,0.6l0.9,0.8c0.4,0.3,0.7,0.7,1,1.1
	l0.9,0.9l0.5,0.6c0.4,0.6,0.8,1.2,1,1.9c0.1,0.4,0.2,0.9,0.4,1.3c0.1,0.4,0.2,0.7,0.3,1.1c0.1,0.3,0.2,0.5,0.4,0.7l0.7,0.8l0.3,0.2
	c0.1,0,0.3,0,0.3-0.2C53.9,74.6,53.9,74.5,53.8,74.4z M23.1,24.6c0-0.1,0.1-0.2,0.1-0.4l0.3-0.8c0-0.1,0-0.1,0.1-0.1l0.3-0.6
	c0-0.2,0.1-0.4,0.3-0.6l0.4-0.6c0.1,0,0.1,0,0.1-0.1l0.4-0.5l0.3-0.4c0.2-0.2,0.3-0.4,0.4-0.6c0.2-0.2,0.4-0.4,0.4-0.6
	c0-0.2,0.3-0.4,0.5-0.6h0.1l0.3-0.6c0.1-0.2,0.2-0.5,0.2-0.8c0.1-0.2,0.1-0.4,0.2-0.6s0.1-0.4,0.1-0.6c0-0.4,0-0.9,0.1-1.3v-0.3h0.1
	c-0.1-0.1-0.1-0.1,0-0.2h0.1c0.1,0.1,0.1,0.3,0.1,0.4c0.1,0.1,0.1,0.2,0.1,0.3c0,0.2,0,0.3,0.1,0.4v0.3c0,0.2,0,0.3,0.1,0.4v-0.2
	l0.4-1l0.2-0.4c0-0.2,0.1-0.3,0.1-0.5c0-0.3,0.1-0.6,0.1-0.8s0.1-0.3,0.1-0.5s0-0.3,0.1-0.4v-0.6c0-0.1,0-0.3,0.1-0.4h0.2l0.3,0.3
	C30,11.7,30,11.8,30,12c0,0.2,0.1,0.2,0,0.3h0.1v1.2c0,0.2,0,0.3,0,0.5C30,14.1,30,14.3,30,14.4c0,0.2-0.1,0.4-0.2,0.5v0.2
	c-0.1,0.3-0.2,0.6-0.3,0.8l-0.3,0.6l-0.6,0.9l-0.3,0.5l-0.4,0.7l-0.3,0.5c-0.1,0-0.1,0-0.1,0.1L27,19.8l0.3-0.2l0.9-0.4l0.9-0.2h0.2
	c0,0.2-0.1,0.2-0.2,0.3l-0.4,0.2l-0.8,0.4l-0.3,0.2c-0.2,0.1-0.4,0.2-0.5,0.4l-0.4,0.2c0,0.1,0,0.1-0.1,0.1l-0.4,0.3
	c-0.1,0-0.2,0.1-0.2,0.2l-1,1.2l-0.3,0.6l-0.3,0.6c0,0.2-0.1,0.3-0.2,0.5c0,0.1,0,0.2-0.1,0.2c-0.1,0-0.1,0.1-0.1,0.2
	c-0.1,0.2-0.2,0.5-0.2,0.7l-0.7-0.4C23,24.8,23,24.7,23.1,24.6z M19.1,32.1l-1.8-0.8L16.9,31L16,30.5h-0.2l-0.5-0.3l-0.6-0.4
	c-0.3-0.1-0.6-0.3-0.8-0.6l-0.4-0.3c-0.1-0.2-0.3-0.2-0.4-0.4c-0.3,0.1-0.6,0-0.8-0.1L12,28.2h-1.2c-0.1,0-0.6,0-0.7,0.2H9.8
	c0.2-0.2,0.3-0.4,0.5-0.4H12l-0.4-0.5l-0.4-0.3c0-0.1-0.1-0.1-0.1-0.2h-0.2c0-0.1-0.1-0.1-0.2-0.2l-0.5-0.5C10.1,26.2,10,26.1,10,26
	l-0.2-0.2H9.6c-0.1-0.1-0.1-0.3-0.3-0.3l-0.7-0.7H8.5l-0.3-0.5l-0.5-0.6c-0.1-0.1-0.2-0.3-0.2-0.4H6.4c-0.2-0.1-0.4,0.1-0.6,0.1
	l-0.6,0.2l-0.3,0.2H4.5v-0.2c0.2-0.7,0.7-1.3,1.3-1.7l0.5-0.2h0.5c0-0.2,0-0.3-0.1-0.4l-0.4-0.7H6.2c0-0.1,0-0.1-0.1-0.1
	c0-0.1,0-0.2-0.1-0.3l-0.3-0.7l-0.2-0.3c0-0.2-0.1-0.3-0.2-0.5c-0.1-0.2-0.2-0.4-0.2-0.6C5.1,18,5,18,5,17.9c0-0.2-0.1-0.5-0.2-0.7
	v-0.3h0.5c0.1,0,0.2,0.1,0.2,0.2c0,0.1,0,0.2,0.1,0.3l0.2,0.2L6,18.1c0.1,0,0.2,0.3,0.2,0.4c0.1,0.1,0.1,0.1,0.1,0.3h0.1
	c0,0.1,0,0.2,0.1,0.3c0.1,0.1,0.1,0.2,0.1,0.3h0.1c0.1-0.2,0.1-0.5,0.1-0.7C6.9,18.5,6.9,18.2,7,18c0.1-0.2,0.1,0.2,0.1,0.3
	c0.1,0.1,0.1,0.2,0.1,0.3v0.8c0.1,0.1,0.1,0.1,0.1,0.2v0.3c0,0.3,0.1,0.6,0.1,0.9V21l0.3,0.4L8,21.8C8.1,21.9,8.1,22,8.2,22l0.5,0.6
	L9,23.1c0.1,0,0.1,0,0.1,0.1c0.1,0.1,0.1,0.3,0.3,0.3c0.2,0,0.3,0.1,0.3,0.3l0.3,0.3l0.4,0.3c0-0.1,0-0.3-0.1-0.4v-1.7
	c0-0.1,0-0.3,0.1-0.4c0-0.2,0-0.5,0.1-0.7c0-0.2,0.1-0.3,0.1-0.5c0-0.1,0-0.2,0.1-0.3l0.3-0.7c0-0.1,0.1-0.1,0.1-0.2h0.1v0.6
	c-0.1,0.2-0.1,0.4-0.1,0.6c-0.1,0.2,0,0.4,0,0.6C11,21.6,11,22,11,22.3v0.3c0,0.1-0.1,0.2-0.1,0.3c0,0.3,0,0.5,0.1,0.8
	c0,0.1,0,0.2-0.1,0.2v0.2l0.3,0.8l0.2,0.3h0.2c0,0.1,0.1,0.2,0.2,0.2l0.7,0.6l0.3,0.3c0.1,0.1,0.2,0.1,0.1,0.2l0.2,0.2l0.3,0.3
	c0.1,0.2,0.3,0.3,0.5,0.4c0.3,0.2,0.6,0.4,0.8,0.7c0.1,0,0.1,0.1,0.1,0.2l0.2,0.2c0.1,0,0.1,0.1,0.2,0.2l0.4,0.3l0.3,0.2H16
	c0.1,0,0.1,0,0.1,0.1l0.4,0.2l0.5,0.3l0.5,0.3h0.1l0.3,0.2l1-0.3l-0.4,0.9l0.6,0.7V32.1z M20.1,30v0.1l-0.6-1.6
	c-0.1-0.2-0.1-0.4-0.2-0.6L19,26.8c-0.2-0.5-0.3-1-0.4-1.5c-0.1-0.3-0.1-0.7-0.2-1c-0.1-0.3-0.1-0.8-0.1-1.1
	c-0.1-0.2-0.1-0.5-0.1-0.7c-0.1-0.3-0.1-0.7-0.1-1v-2.4c0-0.3,0.1-0.5,0.1-0.8c-0.1-0.3-0.1-0.7-0.1-1C18,17.2,18,17,18,16.9
	l-0.3-1.2c0-0.1,0-0.2-0.1-0.3c0-0.3-0.1-0.6-0.2-0.8v-0.2l-0.2-0.2l-0.3-0.8v-0.2c-0.1,0-0.1-0.2-0.2-0.2c-0.1-0.2,0-0.4-0.2-0.6
	c0-0.1,0.1-0.1,0-0.2c-0.1-0.1-0.1,0,0-0.1c0-0.2-0.1-0.3-0.2-0.4l-0.4-0.5l-0.2-0.3l-0.6-0.8l-0.3-0.4l-0.4-0.8
	c-0.2-0.3-0.4-0.6-0.7-0.8H14l0.7,0.4L15.1,9l0.5,0.5h0.2l0.3,0.4l0.2,0.2V8.6V8.1c0.1-0.1,0-0.1,0-0.1c0-0.2,0-0.4,0.1-0.5V7.1
	c0-0.1,0-0.2,0.1-0.3c0.1,0,0.1,0,0.1-0.1c0-0.1,0.1-0.3,0-0.4h0.1c0.1,0.1,0.1,0.2,0.1,0.4h0.1v0.2C17,7,16.9,7.1,17,7.2V10
	c0,0.2,0,0.3,0.1,0.4v0.9c0.1,0.1,0,0.2,0.1,0.3v0.7l0.3,1l0.3,1c0,0.2,0.1,0.4,0.1,0.6H18c0.1-0.3,0.3-0.6,0.5-0.9
	c0.1-0.3,0.3-0.6,0.6-0.9c0.1-0.2,0.3-0.4,0.5-0.4c0.2,0.1,0.2,0.2,0.1,0.4c-0.2,0.2-0.3,0.4-0.3,0.7L19.2,14l-0.4,0.8
	c-0.1,0.2-0.2,0.3-0.2,0.4l-0.3,0.4c-0.1,0.3-0.2,0.5-0.1,0.7c0.1,0.3,0.1,0.7,0.1,1c0.1,0.2,0,0.4,0.1,0.6v1.2c0,0.2,0,0.3-0.1,0.5
	c0,0.5,0,0.9,0.1,1.4v0.6c0,0.2,0.1,0.5,0.1,0.8v0.2c0.1,0.3,0.1,0.6,0.2,0.9c0.1,0.3,0.1,0.4,0.1,0.6c0,0.3,0.1,0.6,0.2,0.9
	c0.1,0.3,0.1,0.5,0.2,0.8c0,0.3,0.1,0.5,0.2,0.8c0,0.3,0.1,0.7,0.2,1c0.1,0.2,0.2,0.5,0.2,0.7c0.1,0.1,0.1,0.3,0.1,0.4
	c0.2,0.2,0.3,0.5,0.3,0.8C20.1,29.6,20.1,29.8,20.1,30z M16.5,45.1v0.3l0.5-0.3l1.1-0.7l0.3-0.2l1.4-0.9l0.6-0.4l0.7-0.6l0.4-0.2
	c0.1-0.2,0.3-0.2,0.4-0.3l0.3-0.3l0.2-0.2l0.7-0.5l0.3-0.3h0.2l0.6-0.5l0.5-0.3l0.5-0.3h0.2c0-0.1,0.1-0.1,0.2-0.2
	c0.1-0.1,0,0.2-0.1,0.2h-0.1c0,0.1,0,0.2-0.1,0.2c0,0.1,0,0.1-0.1,0.1h-0.1c-0.1,0.1-0.2,0.1-0.2,0.2l-0.5,0.5h-0.1
	c-0.2,0.1-0.4,0.3-0.5,0.5l-0.5,0.4l-0.2,0.2h-0.2v0.2h-0.2c-0.1,0.1-0.3,0.2-0.3,0.3h-0.2l-0.7,0.7l-0.6,0.4l-0.5,0.3l-0.9,0.5
	l-0.4,0.3h-0.2l-0.2,0.2l-1.1,0.7l-0.3,0.2l-0.9,0.3C16.4,45.4,16.5,45.3,16.5,45.1z M25.9,41.6L25.6,42c-0.1,0.1-0.2,0.1-0.2,0.2
	c0,0.1-0.1,0.2-0.2,0.2h-0.1c-0.1,0-0.1,0.1-0.1,0.2h-0.1c0,0.1,0,0.2-0.1,0.2h-0.1c-0.1,0-0.1,0-0.1,0.1l-0.3,0.5
	c-0.1,0.1-0.2,0.2-0.2,0.3h-0.3c0,0.1-0.1,0.2-0.2,0.3l-0.7,0.5c0,0.1,0,0.1-0.1,0.1l-0.4,0.3c0,0.1,0,0.1-0.1,0.1h-0.1
	c-0.1,0.2-0.3,0.3-0.5,0.4c0,0.1-0.1,0.1-0.2,0.2l-0.3,0.2L20.9,46l-0.2,0.2c-0.1,0-0.2,0-0.2,0.1l-0.3,0.2l-0.4,0.2l-0.3,0.2
	l-0.7,0.4h-0.1l-0.4,0.2l-1,0.3L16.7,48h-0.2c0-0.2-0.1-0.3-0.1-0.4c0-0.1,0-0.1,0.1-0.1l0.8-0.2c0.3-0.1,0.6-0.2,0.8-0.4h0.3
	l1.3-0.7l0.8-0.6l1-0.7l0.8-0.6l0.5-0.4l0.3-0.2l0.3-0.3c0.1,0,0.2-0.2,0.3-0.3h0.1c0.1,0,0.1,0,0.1-0.1c0.2,0,0.2-0.2,0.3-0.3
	l0.2-0.2l0.2-0.2h0.2c0-0.1,0.1-0.2,0.1-0.3h0.2c0.2,0,0.2-0.2,0.3-0.2c0.1,0,0.1,0,0.1-0.1h0.1c0.1-0.1,0.1-0.1,0.1-0.3h0.1
	c0.1,0.1,0.1,0,0.1,0c0.1,0,0.1,0,0.1-0.1h0.1C26.1,41.5,26,41.5,25.9,41.6z M26.3,41.2V41c0,0,0-0.1,0-0.2
	C26.4,40.6,26.5,41,26.3,41.2z M35.2,42.8V43c-0.2,0.3-0.3,0.7-0.5,1l-0.3,0.4l-0.3,0.3H34c0,0.1,0,0.1-0.1,0.1
	c-0.1,0-0.2,0.2-0.2,0.3l-0.5,0.7h-0.1l-0.3,0.5h-0.1c-0.1,0-0.1,0.1-0.1,0.2c0,0.1,0,0.1-0.1,0.2L32.3,47h-0.2
	C32,47,32,47.2,32,47.2l-0.4,0.2L31,47.7h-0.1l-0.4,0.2L30,48.1c0,0,0,0-0.1,0c-0.1,0-0.1,0-0.1-0.1l0.9-0.5l0.2-0.2
	c0.3-0.1,0.5-0.4,0.7-0.6c0-0.1,0-0.1,0.1-0.1c0.3-0.2,0.6-0.5,0.8-0.8c0.2-0.4,0.4-0.7,0.7-1c0.1-0.1,0.1-0.3,0.3-0.4
	c0-0.1,0.1-0.3,0.2-0.4l0.3-0.4l0.4-0.5l0.4-0.5h0.4V42.8z"/>
</svg>
