<?xml version="1.0" encoding="utf-8"?>
<!-- Generator: Adobe Illustrator 25.4.1, SVG Export Plug-In . SVG Version: 6.00 Build 0)  -->
<svg version="1.1" id="Layer_1" xmlns="http://www.w3.org/2000/svg" xmlns:xlink="http://www.w3.org/1999/xlink" x="0px" y="0px"
	 viewBox="0 0 53.9 74.9" enable-background="new 0 0 53.9 74.9" xml:space="preserve">
<g id="Layer_2_00000095296982642354953180000014826896878754914488_">
	<g id="Layer_1-2">
		<path fill-rule="evenodd" clip-rule="evenodd" fill="#FFFFFF" d="M35.4,10c-0.1-0.3-0.2-0.6-0.4-0.9c-0.4-0.6-1-1-1.6-1.4h-0.5
			L31,7.4c-0.2-0.1-0.4-0.2-0.5-0.4l-0.3-0.5C30,6.2,29.6,6,29.2,6c-0.5-0.1-1,0-1.4,0.3C27.1,6.6,26.5,7,26,7.6
			c-0.6,0.7-1,1.4-1.4,2.2c-0.3,0.4-0.5,0.9-0.6,1.4c-0.1,0.7-0.2,1.3-0.2,2c0,0.9,0,1.9-0.1,2.8c0,0.4-0.1,0.8-0.3,1.1L22.7,18
			l-0.5,0.6c-0.4,0.6-0.7,1.2-0.9,1.9c-0.2,0.7-0.3,1.5-0.4,2.2v0.7c0,0.1,0,0.1,0.1,0.2c0.1,0.5,0.5,0.8,0.9,1l0.6,0.3
			c-0.2,0.8-0.4,1.6-0.7,2.4c-0.1-0.1-0.1-0.3-0.2-0.4c0-0.2-0.1-0.5-0.2-0.7c-0.3-0.9-0.6-1.9-1-2.8c-0.1-0.3-0.1-0.5-0.1-0.8
			c-0.1-0.3-0.1-0.7-0.1-1c0-0.4,0.1-0.8,0.2-1.2l0.3-0.9c0.2-0.1,0.3-0.4,0.3-0.6c0.1-0.1,0.2-0.3,0.2-0.4c0.2-0.2,0.3-0.4,0.4-0.7
			c0-0.1,0-0.3,0.1-0.3c0.2-0.3,0.4-0.7,0.5-1.1c0.2-0.4,0.4-0.9,0.5-1.3c0.2-0.7,0.1-1.5-0.1-2.2L22,11.7L21,10
			c-0.3-0.5-0.3-1-0.2-1.5c0.2-0.4,0.3-0.9,0.4-1.3c0-0.1,0-0.1,0.1-0.2c0.3-0.5,0.5-1,0.6-1.5c0.2-0.6,0.3-1.3,0.3-2
			c0-0.7-0.2-1.4-0.7-2L21.1,1c-0.5-0.4-1.1-0.8-1.8-1h-2.1l-1.3,0.8l-1.4,1.1c-1,0.9-1.9,2-2.6,3.1c-0.5,0.7-0.7,1.5-0.7,2.3
			c0,0.4,0.1,0.8,0.3,1.2l0.8,1.2l0.7,1.1c0.5,0.8,0.7,1.8,0.4,2.7l-0.6,1.6c0,0.2,0,0.3-0.1,0.5c-0.1,0.4-0.1,0.8-0.1,1.2
			c0,0.5,0.2,1,0.5,1.4v0.2c-0.4-0.4-0.9-0.7-1.4-0.9l-0.2-0.2c-0.2-0.1-0.3-0.2-0.4-0.4c-0.3-0.7-0.5-1.4-0.6-2.2l0,0
			c0.1-0.1,0.1-0.2,0-0.3c0,0,0,0,0,0l-0.3-0.5c-0.2-0.7-0.7-1.2-1.3-1.4c-0.5-0.2-1.1-0.3-1.6-0.2c-0.8,0.1-1.5,0.5-2,1.1
			c-0.6,0.6-1.2,1.3-1.7,2c-0.1,0.3-0.4,0.5-0.6,0.8c-0.7,0.8-1.3,1.6-1.9,2.5c-0.5,0.8-0.8,1.6-1,2.5C0,21.3,0,21.5,0,21.6
			c0,0.6,0.1,1.1,0.5,1.6c0.4,0.4,0.9,0.6,1.4,0.7C2.3,24,2.6,24,3,23.9l0.9-0.2l0.3,0.2c0.2,0.4,0.3,0.9,0.2,1.4
			c-0.1,0.5,0,0.9,0.1,1.4c0,0.1,0,0.2,0.1,0.3c0.4,0.7,1.1,1.2,1.9,1.2h0.4l0.3,0.2l0.3,0.5l0.3,0.7c0.1,0.4,0.4,0.7,0.7,0.9
			c0.7,0.5,1.5,0.7,2.3,0.8l2-0.2c0.6-0.1,1.3-0.1,1.9,0c0.7,0.1,1.4,0.3,1.9,0.8c0.7,0.5,1.3,1,1.8,1.7c0.5,0.6,1,1.2,1.5,1.7
			c0.2,0.2,0.4,0.4,0.7,0.4h0.3l1.2-0.7c-0.1-0.6-0.1-1.2,0-1.8c0-0.1,0.1-0.3,0.1-0.4c-0.1-0.6,0-1.1,0.1-1.7
			c0-0.2,0.1-0.3,0.1-0.5c0.1-1.1,0.3-2.2,0.6-3.2l0.3-1c0.1-0.2,0.2-0.4,0.2-0.6h0.1l0.3,0.3c0.4,0.6,1,1,1.7,1.1
			c0.6,0.1,1.3,0,1.8-0.5c0.5-0.4,0.8-1,0.9-1.7v-0.6c0.1-0.2,0.1-0.3,0.3-0.3l1-0.4c0.5-0.1,1-0.3,1.5-0.6l0.8-1l0.5-0.8
			c0.1-0.4,0.2-0.9,0.2-1.3c0.1-0.3,0.1-0.6,0-0.9c-0.2-0.5-0.4-1.1-0.4-1.7c-0.1-0.5,0-0.9,0.3-1.3l0.6-0.7l1.5-1.7
			c0.7-0.7,1-1.7,1-2.7C35.6,10.7,35.5,10.3,35.4,10z M19.1,32.1l-1.8-0.8L16.9,31L16,30.5h-0.2l-0.5-0.3l-0.6-0.4
			c-0.3-0.1-0.6-0.3-0.8-0.6l-0.4-0.3c-0.1-0.2-0.3-0.2-0.4-0.4c-0.3,0.1-0.6,0-0.8-0.1L12,28.2h-1.2c-0.1,0-0.6,0-0.7,0.2H9.8
			c0.2-0.2,0.3-0.4,0.5-0.4H12l-0.4-0.5l-0.4-0.3c0-0.1-0.1-0.1-0.1-0.2h-0.2c0-0.1-0.1-0.1-0.2-0.2l-0.5-0.5
			C10.1,26.2,10,26.1,10,26l-0.2-0.2H9.6c-0.1-0.1-0.1-0.3-0.3-0.3l0,0l-0.7-0.7H8.5l-0.3-0.5l-0.5-0.6c-0.1-0.1-0.2-0.3-0.2-0.4
			H6.4c-0.2-0.1-0.4,0.1-0.6,0.1l-0.6,0.2l-0.3,0.2H4.5v-0.2c0.2-0.7,0.7-1.3,1.3-1.7l0.5-0.2h0.5c0-0.2,0-0.3-0.1-0.4l-0.4-0.7H6.2
			c0-0.1,0-0.1-0.1-0.1c0-0.1,0-0.2-0.1-0.3l-0.3-0.7l-0.2-0.3c0-0.2-0.1-0.3-0.2-0.5l0,0c-0.1-0.2-0.2-0.4-0.2-0.6
			C5.1,18,5,18,5,17.9c0-0.2-0.1-0.5-0.2-0.7v-0.3h0.5c0.1,0,0.2,0.1,0.2,0.2l0,0c0,0.1,0,0.2,0.1,0.3l0.2,0.2L6,18.1
			c0.1,0,0.2,0.3,0.2,0.4l0,0c0.1,0.1,0.1,0.1,0.1,0.3h0.1c0,0.1,0,0.2,0.1,0.3s0.1,0.2,0.1,0.3h0.1c0.1-0.2,0.1-0.5,0.1-0.7
			C6.9,18.5,6.9,18.2,7,18s0.1,0.2,0.1,0.3c0.1,0.1,0.1,0.2,0.1,0.3v0.8c0.1,0.1,0.1,0.1,0.1,0.2v0.3c0,0.3,0.1,0.6,0.1,0.9V21
			l0.3,0.4L8,21.8C8.1,21.9,8.1,22,8.2,22l0.5,0.6L9,23.1c0.1,0,0.1,0,0.1,0.1l0,0c0.1,0.1,0.1,0.3,0.3,0.3s0.3,0.1,0.3,0.3l0.3,0.3
			l0.4,0.3c0-0.1,0-0.3-0.1-0.4v-1.7c0-0.1,0-0.3,0.1-0.4c0-0.2,0-0.5,0.1-0.7c0-0.2,0.1-0.3,0.1-0.5c0-0.1,0-0.2,0.1-0.3l0.3-0.7
			c0-0.1,0.1-0.1,0.1-0.2h0.1v0.6c-0.1,0.2-0.1,0.4-0.1,0.6c-0.1,0.2,0,0.4,0,0.6C11,21.6,11,22,11,22.3v0.3c0,0.1-0.1,0.2-0.1,0.3
			c0,0.3,0,0.5,0.1,0.8c0,0.1,0,0.2-0.1,0.2v0.2l0.3,0.8l0.2,0.3h0.2c0,0.1,0.1,0.2,0.2,0.2c0,0,0,0,0,0l0.7,0.6l0.3,0.3
			c0.1,0.1,0.2,0.1,0.1,0.2l0.2,0.2l0,0l0.3,0.3c0.1,0.2,0.3,0.3,0.5,0.4c0.3,0.2,0.6,0.4,0.8,0.7c0.1,0,0.1,0.1,0.1,0.2l0.2,0.2
			c0.1,0,0.1,0.1,0.2,0.2l0.4,0.3l0.3,0.2H16c0.1,0,0.1,0,0.1,0.1l0,0l0.4,0.2l0.5,0.3l0.5,0.3h0.1l0.3,0.2H18l0.5,0.6l0.6,0.7V32.1
			z M20.2,29.5c-0.1,0.1-0.1,0.3-0.1,0.5v0.1l-0.6-1.6c-0.1-0.2-0.1-0.4-0.2-0.6L19,26.8c-0.2-0.5-0.3-1-0.4-1.5
			c-0.1-0.3-0.1-0.7-0.2-1s-0.1-0.8-0.1-1.1c-0.1-0.2-0.1-0.5-0.1-0.7c-0.1-0.3-0.1-0.7-0.1-1v-2.4c0-0.3,0.1-0.5,0.1-0.8
			c-0.1-0.3-0.1-0.7-0.1-1C18,17.2,18,17,18,16.9l-0.3-1.2c0-0.1,0-0.2-0.1-0.3c0-0.3-0.1-0.6-0.2-0.8v-0.2l-0.2-0.2l-0.3-0.8v-0.2
			c-0.1,0-0.1-0.2-0.2-0.2l0,0c-0.1-0.2,0-0.4-0.2-0.6l0,0c0-0.1,0.1-0.1,0-0.2c-0.1-0.1-0.1,0,0-0.1c0-0.2-0.1-0.3-0.2-0.4
			l-0.4-0.5l-0.2-0.3l0,0l-0.6-0.8l-0.3-0.4l-0.4-0.8c-0.2-0.3-0.4-0.6-0.7-0.8H14l0.7,0.4L15.1,9l0.5,0.5h0.2l0.3,0.4l0.2,0.2l0,0
			V8.6l0,0V8.1c0.1-0.1,0-0.1,0-0.1c0-0.2,0-0.4,0.1-0.5l0,0V7.1l0,0c0-0.1,0-0.2,0.1-0.3c0.1,0,0.1,0,0.1-0.1c0,0,0,0,0,0l0,0
			c0-0.1,0.1-0.3,0-0.4h0.1c0.1,0.1,0.1,0.2,0.1,0.4h0.1v0.2C17,7,16.9,7.1,17,7.2l0,0V10c0,0.2,0,0.3,0.1,0.4v0.9l0,0
			c0.1,0.1,0,0.2,0.1,0.3v0.7l0.3,1l0.3,1c0,0.2,0.1,0.4,0.1,0.6H18c0.1-0.3,0.3-0.6,0.5-0.9c0.1-0.3,0.3-0.6,0.6-0.9
			c0.1-0.2,0.3-0.4,0.5-0.4c0.2,0.1,0.2,0.2,0.1,0.4c-0.2,0.2-0.3,0.4-0.3,0.7L19.2,14l-0.4,0.8c-0.1,0.2-0.2,0.3-0.2,0.4l-0.3,0.4
			c-0.1,0.3-0.2,0.5-0.1,0.7c0.1,0.3,0.1,0.7,0.1,1c0.1,0.2,0,0.4,0.1,0.6v1.2c0,0.2,0,0.3-0.1,0.5c0,0.5,0,0.9,0.1,1.4v0.6
			c0,0.2,0.1,0.5,0.1,0.8v0.2l0,0c0.1,0.3,0.1,0.6,0.2,0.9s0.1,0.4,0.1,0.6c0,0.3,0.1,0.6,0.2,0.9c0.1,0.3,0.1,0.5,0.2,0.8
			c0,0.3,0.1,0.5,0.2,0.8c0,0.3,0.1,0.7,0.2,1c0.1,0.2,0.2,0.5,0.2,0.7c0.1,0.1,0.1,0.3,0.1,0.4C20.1,28.9,20.2,29.2,20.2,29.5z
			 M30.1,14C30,14.1,30,14.3,30,14.4c0,0.2-0.1,0.4-0.2,0.5v0.2c-0.1,0.3-0.2,0.6-0.3,0.8l-0.3,0.6l-0.6,0.9l-0.3,0.5l-0.4,0.7
			l-0.3,0.5c-0.1,0-0.1,0-0.1,0.1L27,19.8l0,0l0.3-0.2l0.9-0.4l0.9-0.2h0.2c0,0.2-0.1,0.2-0.2,0.3l-0.4,0.2l-0.8,0.4l-0.3,0.2
			c-0.2,0.1-0.4,0.2-0.5,0.4l-0.4,0.2c0,0.1,0,0.1-0.1,0.1l0,0l-0.4,0.3c-0.1,0-0.2,0.1-0.2,0.2v0l-1,1.2l-0.3,0.6l-0.3,0.6
			c0,0.2-0.1,0.3-0.2,0.5c0,0.1,0,0.2-0.1,0.2S24,24.5,24,24.6c-0.1,0.2-0.2,0.5-0.2,0.7l0,0l-0.7-0.4c-0.1-0.1-0.1-0.2,0-0.3
			c0,0,0,0,0,0c0-0.1,0.1-0.2,0.1-0.4l0.3-0.8c0-0.1,0-0.1,0.1-0.1l0,0l0.3-0.6c0-0.2,0.1-0.4,0.3-0.6l0.4-0.6c0.1,0,0.1,0,0.1-0.1
			l0,0l0.4-0.5l0,0l0.3-0.4c0.2-0.2,0.3-0.4,0.4-0.6c0.2-0.2,0.4-0.4,0.4-0.6s0.3-0.4,0.5-0.6h0.1l0.3-0.6c0.1-0.2,0.2-0.5,0.2-0.8
			c0.1-0.2,0.1-0.4,0.2-0.6s0.1-0.4,0.1-0.6c0-0.4,0-0.9,0.1-1.3v-0.3h0.1c-0.1-0.1-0.1-0.1,0-0.2h0.1c0.1,0.1,0.1,0.3,0.1,0.4
			c0.1,0.1,0.1,0.2,0.1,0.3c0,0.2,0,0.3,0.1,0.4v0.3c0,0.2,0,0.3,0.1,0.4v-0.2l0.4-1l0.2-0.4c0-0.2,0.1-0.3,0.1-0.5l0,0
			c0-0.3,0.1-0.6,0.1-0.8c0-0.2,0.1-0.3,0.1-0.5c0-0.2,0-0.3,0.1-0.4v-0.6c0-0.1,0-0.3,0.1-0.4h0.2l0.3,0.3C30,11.7,30,11.8,30,12
			c0,0.2,0.1,0.2,0,0.3h0.1v1.2C30.1,13.7,30.1,13.8,30.1,14z"/>
		<g>
			<defs>
				<path id="SVGID_1_" d="M35.2,43c-0.2,0.3-0.3,0.7-0.5,1l0,0l-0.3,0.4l-0.3,0.3H34c0,0.1,0,0.1-0.1,0.1c-0.1,0-0.2,0.2-0.2,0.3
					l-0.5,0.7h-0.1l-0.3,0.5h-0.1c-0.1,0-0.1,0.1-0.1,0.2c0,0.1,0,0.1-0.1,0.2L32.3,47h-0.2C32,47,32,47.2,32,47.2l-0.4,0.2L31,47.7
					h-0.1l-0.4,0.2l-0.7,0.3H30c0-0.1,0-0.1-0.1-0.1c-0.1,0-0.1,0-0.1-0.1l0.9-0.5l0.2-0.2c0.3-0.1,0.5-0.4,0.7-0.6
					c0-0.1,0-0.1,0.1-0.1c0.3-0.2,0.6-0.5,0.8-0.8c0.2-0.4,0.4-0.7,0.7-1c0.1-0.1,0.1-0.3,0.3-0.4c0-0.1,0.1-0.3,0.2-0.4l0,0
					l0.3-0.4l0.4-0.5l0.4-0.5h0.4v0.2 M26.3,40.8c-0.1,0.2-0.2,0.3-0.2,0.5s-0.1,0.2-0.2,0.3L25.6,42c-0.1,0.1-0.2,0.1-0.2,0.2
					c0,0.1-0.1,0.2-0.2,0.2h0h-0.1c-0.1,0-0.1,0.1-0.1,0.2h-0.1c0,0.1,0,0.2-0.1,0.2h-0.1c-0.1,0-0.1,0-0.1,0.1l-0.3,0.5
					c-0.1,0.1-0.2,0.2-0.2,0.3h-0.3c0,0.1-0.1,0.2-0.2,0.3l-0.7,0.5c0,0.1,0,0.1-0.1,0.1l-0.4,0.3c0,0.1,0,0.1-0.1,0.1h-0.1
					c-0.1,0.2-0.3,0.3-0.5,0.4c0,0.1-0.1,0.1-0.2,0.2l-0.3,0.2L20.9,46l-0.2,0.2c-0.1,0-0.2,0-0.2,0.1l-0.3,0.2l-0.4,0.2l-0.3,0.2
					l-0.7,0.4h-0.1l-0.4,0.2l-1,0.3L16.7,48h-0.2c0-0.2-0.1-0.3-0.1-0.4c0-0.1,0-0.1,0.1-0.1l0.8-0.2c0.3-0.1,0.6-0.2,0.8-0.4h0.3
					l1.3-0.7l0.8-0.6l1-0.7l0.8-0.6l0.5-0.4l0,0l0.3-0.2l0.3-0.3c0.1,0,0.2-0.2,0.3-0.3h0.1c0.1,0,0.1,0,0.1-0.1l0,0
					c0.2,0,0.2-0.2,0.3-0.3l0.2-0.2l0.2-0.2h0.2c0-0.1,0.1-0.2,0.1-0.3h0.2c0.2,0,0.2-0.2,0.3-0.2c0.1,0,0.1,0,0.1-0.1h0.1
					c0.1-0.1,0.1-0.1,0.1-0.3h0.1c0.1,0.1,0.1,0,0.1,0l0,0c0.1,0,0.1,0,0.1-0.1h0.1c0.1,0,0.1,0,0.1-0.1C26.2,41,26.4,41,26.3,40.8
					c0.1-0.2,0.2,0.2,0,0.4 M16.5,45.4l0.5-0.3l1.1-0.7l0.3-0.2l1.4-0.9l0.6-0.4l0.7-0.6l0.4-0.2c0.1-0.2,0.3-0.2,0.4-0.3l0.3-0.3
					l0.2-0.2l0.7-0.5l0.3-0.3h0.2l0.6-0.5l0.5-0.3l0.5-0.3h0.2c0-0.1,0.1-0.1,0.2-0.2s0,0.2-0.1,0.2h-0.1c0,0.1,0,0.2-0.1,0.2
					c0,0.1,0,0.1-0.1,0.1h-0.1c-0.1,0.1-0.2,0.1-0.2,0.2l-0.5,0.5h-0.1c-0.2,0.1-0.4,0.3-0.5,0.5l-0.5,0.4l0,0l-0.2,0.2h-0.2v0.2
					h-0.2c-0.1,0.1-0.3,0.2-0.3,0.3h-0.2l-0.7,0.7l-0.6,0.4l-0.5,0.3l-0.9,0.5l-0.4,0.3h-0.2l-0.2,0.2l-1.1,0.7l-0.3,0.2l-0.9,0.3
					c0-0.2,0.1-0.3,0.1-0.5 M53.8,74.4c-0.3-0.4-0.6-0.7-1-1c-0.2-0.1-0.2-0.3-0.2-0.6c0-0.2,0-0.3-0.1-0.5
					c-0.2-0.6-0.3-1.3-0.5-1.9c-0.2-0.6-0.5-1.2-1-1.7c-0.3-0.3-0.5-0.6-0.7-1c-0.1-0.3-0.3-0.5-0.5-0.7l-0.5-0.4l-0.6-0.7
					c-0.2-0.3-0.5-0.5-0.8-0.7l-1-1L45.3,63c-0.3-0.2-0.6-0.4-0.8-0.7c-0.3-0.5-0.8-0.9-1.4-1.1L42,60.4c-0.4-0.4-0.9-0.7-1.4-0.9
					L39.3,59l-0.8-0.2c-0.6,0-1.2-0.3-1.7-0.6c-0.2-0.2-0.4-0.4-0.4-0.6s-0.3-1-0.5-1.5s-0.1-0.7-0.2-1.1v-1.3
					c0-0.8,0.1-1.5,0.1-2.3c0-0.1,0-0.2,0.1-0.3C36,50.7,36,50.4,36,50v-1.8c0-0.1,0.1-0.2,0.1-0.4c0.2-0.6,0.3-1.3,0.4-1.9
					c0.1-0.7,0.2-1.4,0.2-2.1v-0.3c0.1-0.1,0.1-0.2,0.1-0.3c-0.1-0.4-0.1-0.7-0.1-1.1v-0.5c-0.1-0.1-0.1-0.2-0.1-0.3
					c0-0.3-0.1-0.6-0.2-0.9c0-0.2-0.1-0.5-0.1-0.7c0-0.2,0-0.4-0.1-0.6c0-0.3-0.1-0.6-0.1-0.9l-0.3-0.8l-0.6-1.2
					c-0.3-0.4-0.6-0.8-0.9-1.2c-0.8-0.8-1.7-1.4-2.7-1.8l-0.7-0.3l-1.6-0.2h-2l-1.6,0.4c-1.1,0.3-2.2,0.7-3.2,1.3
					c0,0.1-0.1,0.1-0.2,0.1l0,0l-1.2,0.8h0.1c0,0.2-0.2,0.3-0.3,0.4c-0.6,0.5-1.1,1-1.5,1.6l-1.5,2.3c-0.1,0.1-0.2,0.3-0.2,0.4
					l-1.2,2l-0.9,1.7c-0.5,0.9-0.7,1.9-0.8,2.9c0,0.8,0.1,1.7,0.3,2.5c0.1,0.5,0.3,1,0.5,1.5l0.9,1.4h0.1c0,0.1,0,0.2,0.1,0.3
					c0.1,0.1,0.1,0.1,0.1,0.2h0.1c0,0.1,0.1,0.2,0.2,0.3l0,0l0.2,0.2c0,0.1,0,0.1,0.1,0.1l0,0c0.3,0.4,0.7,0.7,1.1,1
					c0.5,0.4,1.1,0.7,1.5,1.1c0.8,0.5,1.6,0.9,2.4,1.2c1,0.4,2,0.7,3.1,0.9l2.2,0.5l1.4,0.3h1.2c0.6,0,1.2,0,1.8,0.2l1.4,0.3h0.3
					l0.8,0.2c0.7,0.1,1.5,0.5,2.3,0.7h0.3l0.5,0.2c0.6,0.3,1.2,0.5,1.8,0.6c0.8,0.2,1.6,0.4,2.4,0.8c0.4,0.1,0.7,0.4,1,0.7
					c0.4,0.3,0.8,0.6,1.2,0.9l1.4,0.9l1.1,1.3l0.5,0.6l0.9,0.8c0.4,0.3,0.7,0.7,1,1.1l0.9,0.9l0.5,0.6c0.4,0.6,0.8,1.2,1,1.9
					c0.1,0.4,0.2,0.9,0.4,1.3c0.1,0.4,0.2,0.7,0.3,1.1c0.1,0.3,0.2,0.5,0.4,0.7l0.7,0.8l0.3,0.2c0.1,0,0.3,0,0.3-0.2
					C53.9,74.6,53.9,74.5,53.8,74.4C53.8,74.4,53.8,74.4,53.8,74.4"/>
			</defs>
			<clipPath id="SVGID_00000081635111100657123140000014887908766694573441_">
				<use xlink:href="#SVGID_1_"  overflow="visible"/>
			</clipPath>
			<g clip-path="url(#SVGID_00000081635111100657123140000014887908766694573441_)">
				<g>
					<defs>
						<rect id="SVGID_00000021826801725815406980000009570611359122384534_" x="14.8" y="32.6" width="39.1" height="42.3"/>
					</defs>
					<clipPath id="SVGID_00000047062603031662657270000012989272521456920511_">
						<use xlink:href="#SVGID_00000021826801725815406980000009570611359122384534_"  overflow="visible"/>
					</clipPath>
					<g clip-path="url(#SVGID_00000047062603031662657270000012989272521456920511_)">
						<rect x="13.8" y="31.6" fill="#FFFFFF" width="41.1" height="44.3"/>
					</g>
				</g>
			</g>
		</g>
	</g>
</g>
</svg>
