<svg id="Layer_1" data-name="Layer 1" xmlns="http://www.w3.org/2000/svg" xmlns:xlink="http://www.w3.org/1999/xlink" viewBox="0 0 54.5 46.7"><defs><clipPath id="clip-path" transform="translate(1.2 1.1)"><path d="M44,10.6a13.7,13.7,0,0,1-1.7-1.7c-1-1.5-1.5-1.4-3-.6l-.4.3a28.5,28.5,0,0,0-4.4,4.1l-2.4,2.5c-.1-.2.1-.3.2-.5a17.4,17.4,0,0,0,3.4-5.5A18.3,18.3,0,0,0,36.9.9c0-.3.1-.8-.3-.9s-.5.3-.7.6A8.9,8.9,0,0,1,32.1,4,8,8,0,0,0,30,5.5a13.5,13.5,0,0,0-3.1,4.4,7.9,7.9,0,0,0-2.2.5,2.4,2.4,0,0,1,.5-1.6A4.6,4.6,0,0,1,27,6.5a1.3,1.3,0,0,0,.5-1.7,1.6,1.6,0,0,0-1.4-1.1h-.8c.3-1.3-.5-2.3-1.6-1.9a9.9,9.9,0,0,1-2.9.3H20a.6.6,0,0,1-.6,0,3.2,3.2,0,0,0-2.8.6A1.7,1.7,0,0,0,16,5.2a4.5,4.5,0,0,0-2,2.1,2.1,2.1,0,0,0,1.2,3.1,4.1,4.1,0,0,0,2.9.2.8.8,0,0,1,.9.3,17.7,17.7,0,0,1,1.6,2.2,27.2,27.2,0,0,0-3.2,3.5l-.2-.2c-.5-.3-.6-.6-.2-1.2a12.4,12.4,0,0,0,1-2c.5-1,.1-1.7-1-1.9a6.6,6.6,0,0,0-2.4-.3,3.9,3.9,0,0,0-2.1.3,3.8,3.8,0,0,0-2.2,1.3,1.2,1.2,0,0,0-.6.6,4.1,4.1,0,0,0-1,2.1,6.5,6.5,0,0,0-.2,3.4c0,.3,0,.7.3.9a.4.4,0,0,0,.1.3H8.8a.1.1,0,0,0,.1.1c.5.7,1,.7,2.1.1l1.7-.8c.4-.2.7-.4.9.2s.3.1.5,0l2.7-1.1,2.6-.6a30.1,30.1,0,0,1,5.2-.1l1.6.3a1.1,1.1,0,0,0,1.5-.4c.5.7.5.7,1.2.2a19.9,19.9,0,0,0,2.7-2.2c.1-.2.2-.4.5-.3s-1.5,1.9-2.2,2.8-.3.8.2,1a17.6,17.6,0,0,1,3.7,1.7c.2.2.4.1.6,0A48.1,48.1,0,0,0,43.2,14a6.9,6.9,0,0,0,1.1-1.3,1.6,1.6,0,0,0-.3-2.1M13.1,16.1h0m-1,1.1a.9.9,0,0,1,.3-.7.9.9,0,0,0-.3.7c.1.4.3.7.7.7s-.6-.3-.7-.7m17.6-2.7a.4.4,0,0,1,.1-.3,1.5,1.5,0,0,0-.1-1.7,1.5,1.5,0,0,1,.1,1.7.4.4,0,0,0-.1.3m-8.6-1.8a9.6,9.6,0,0,1-1.4-2.1c0-.2-.3-.4,0-.6s.3.2.4.4a5.9,5.9,0,0,1,1.2,2l-.2.3m.8-.7a4.8,4.8,0,0,1-.7-1.8c.5,0,.7.1.8.6s.1.7.1,1.1h-.2m1.2-.8h0V11c0-.3-.1-.8.2-.8s.3.5.3.7l-.5.3" fill="none" clip-rule="evenodd"/></clipPath><clipPath id="clip-path-2" transform="translate(1.2 1.1)"><rect x="-855.6" y="-969.2" width="1920" height="1080" fill="none"/></clipPath><clipPath id="clip-path-3" transform="translate(1.2 1.1)"><path d="M33.6,32.6a5.4,5.4,0,0,0-4.7,2.3,2,2,0,0,1-1.1-.6L17.7,28.5c-.1-.4,0-.7.4-.8l.9.5.3.2c2.8,1.8,5.7,3.4,8.7,5a.4.4,0,0,0,.6,0,3.7,3.7,0,0,0,1.5-2.6c.1-.3-.1-.5-.3-.7l-3-1.7-7.5-4.1h-.2c0-.2-.2-.4-.2-.5s-.2-.3-.4-.3.4,0,.4.3h.3l.5.2c.1.2.2.2.3.2a1.9,1.9,0,0,0,.9.5l.7.4,8.6,4.7a.4.4,0,0,0,.5.1A4.2,4.2,0,0,0,32.3,27a.5.5,0,0,0-.3-.5l-3.9-2.2c0-.1-.1-.1-.3-.1s-.4-.4-.7-.5h-.2l-.7-.4h0c.1-.2.3-.2.5-.2h.2l.2.2a1.1,1.1,0,0,0,.8.3h0a1.9,1.9,0,0,0,.9.5H29a1.7,1.7,0,0,0,1.1.6h0l.3.2,1,.6c1.3.7,1.5.7,2.3-.5s.1-.1.1-.2a.9.9,0,0,0,.3-.6c.4-1.3.4-1.3-.7-1.9l-.4-.2c-.1-.3-.5-.3-.7-.4v0c-.3-.2-.5-.4-.8-.4l-.7-.3a.5.5,0,0,0-.5-.3,17.2,17.2,0,0,0-10.5-1.6l1.9,1c.1.1.3.2.2.4h-.3l-.8-.5h-.4l-.4-.2c-.4-.2-.8-.7-1.2-.6a15.7,15.7,0,0,0-4.6,1.6,6.6,6.6,0,0,0,2,1.1,1.2,1.2,0,0,0,.7.5H17c-.1.2.1.2.1.2a1.9,1.9,0,0,0,1,.5l.2.2a.3.3,0,0,0,.1.2H17.3c-.3-.3-.5-.6-1-.6l-.5-.3a1,1,0,0,0-.9-.4h0c0-.1-.1-.2-.2-.1s-.5-.3-.7-.4a.6.6,0,0,0-1.1.3,2.9,2.9,0,0,0-1.2.7c-.1.1-.2.1-.1.2s-.6.2-.7.5-.3.2-.1.4l1,.5c.2.2.4.4.7.3s.3.3.5.4h.3a.5.5,0,0,0,.5.3l2.1,1.3c-.1.3-.1.6-.4.8l-4.3-2.5-.9-.5c-.7-.4-1.3-.9-2.1-.6l-7,1.9c-1,.3-1.4.9-1.1,1.7s.9,1.1,1.8.9l6.2-1.7H9l5.6,3c.2.2,0,.5-.1.7l-2.4,6.5c-.1.2-.2.3,0,.5a1.7,1.7,0,0,0,1.9-.5l.9-2.1a.8.8,0,0,1,.5-.5l5.1-1.5,6.8,3.6c.3.1.6.2.7.5a5.4,5.4,0,0,0,0,3.1,5.7,5.7,0,1,0,5.6-7.1ZM22.9,21.8h0Zm3.4,2.3c0-.1-.1-.2-.1-.3S26.3,24,26.3,24.1Zm-.7-.1.5-.2Zm0-.7h0Zm-.4,0h0Zm.3,0s.1-.1.1,0S25.5,23.3,25.5,23.3Zm-.8,1.5h0Zm5.5,0c.3-.3.8-.2,1.1-.5a4.1,4.1,0,0,0,.3-.8,4.1,4.1,0,0,1-.3.8C31,24.6,30.5,24.5,30.2,24.8Zm2.2-.6a14.8,14.8,0,0,1-.1-2.1A14.8,14.8,0,0,0,32.4,24.2Zm-6.1-2.8h0a.5.5,0,0,1,.2.4A.5.5,0,0,0,26.3,21.4Zm-2.5,0,.3.2c0-.1,0-.2.1-.2a2.5,2.5,0,0,1,1.9-.1,2.5,2.5,0,0,0-1.9.1c-.1,0-.1.1-.1.2s1,.4,1.4.7a1,1,0,0,1,.5.4h-.4l.4.5-.4-.5a5.5,5.5,0,0,1-1.5-.8l-.7-.4c-.2-.2-.6-.2-.6-.5h.1C23.3,21,23.5,21.3,23.8,21.4Zm-6.9,2.5a1.9,1.9,0,0,0,1.3.3,1.9,1.9,0,0,1-1.3-.3h0Zm-.5.5-.2-.2Zm-1.4.5s.1,0,.1-.2S15,24.9,15,24.9Zm1.2,6.7c.2-.5.2-.8.5-1.1l1.1.6Zm19.2,4.1-1.5,1.4c-.2.2-.3.3-.5,0l-1.6-1.4A3,3,0,0,1,35.4,35.7Zm-4.1,4c-.3.4-.5.2-.6-.1a2.9,2.9,0,0,1-.3-1.8,4.6,4.6,0,0,1,1.8,1Zm4,1.1c-.1.4-.7.5-1.1.6H33.1c-.5-.1-1-.2-1.2-.5s.4-.6.6-.9,1.1-1,2.2,0S35.4,40.5,35.3,40.8Zm1.1-1.2c-.1.3-.2.4-.4.1h-.1c-.4-.5-1-1-1.4-1.6l1.7-1.6A3.1,3.1,0,0,1,36.4,39.6Z" fill="none" clip-rule="evenodd"/></clipPath><clipPath id="clip-path-5" transform="translate(1.2 1.1)"><path d="M43.1,8.6c.3.2.4-.2.6-.4s.3-.4.4-.6A13.2,13.2,0,0,0,46,3a5.3,5.3,0,0,0,.5-1.8l-.2.2C45.2,3.6,44,5.7,43.1,7.9c0,.2-.3.5,0,.7" fill="none" clip-rule="evenodd"/></clipPath><clipPath id="clip-path-7" transform="translate(1.2 1.1)"><path d="M45.7,8.7a1.5,1.5,0,0,0-1.2.8c2.4.4,4.8-.5,7.2-.2a11.2,11.2,0,0,0-6-.6" fill="none" clip-rule="evenodd"/></clipPath><clipPath id="clip-path-9" transform="translate(1.2 1.1)"><path d="M44.8,7.6a4,4,0,0,0-1,1.2c0,.1-.1.3,0,.4s.3,0,.4-.1l2.7-1.8c.2,0,.2-.2.4,0a7.4,7.4,0,0,1,2.9-1.2,8,8,0,0,0-5.4,1.5" fill="none" clip-rule="evenodd"/></clipPath><clipPath id="clip-path-11" transform="translate(1.2 1.1)"><path d="M47.3,7.3h0" fill="none" clip-rule="evenodd"/></clipPath><clipPath id="clip-path-13" transform="translate(1.2 1.1)"><path d="M52,7.6a6.4,6.4,0,0,0-4.7-.3c-.1.2-.4.3-.3.5s.4.2.6.2,3-.4,4.5,0,.2,0,.2-.2L52,7.6" fill="none" clip-rule="evenodd"/></clipPath><clipPath id="clip-path-15" transform="translate(1.2 1.1)"><path d="M45.4,6a.6.6,0,0,0,.1.4c.2.2.3,0,.4-.1l.4-.3a9.6,9.6,0,0,0,1.2-3.2A12.4,12.4,0,0,0,45.7,5l-.3,1" fill="none" clip-rule="evenodd"/></clipPath></defs><g clip-path="url(#clip-path)"><g clip-path="url(#clip-path-2)"><rect x="8.4" width="38.5" height="23.05" fill="#fff"/></g></g><g clip-path="url(#clip-path-3)"><g clip-path="url(#clip-path-2)"><rect y="18.7" width="42" height="27.99" fill="#fff"/></g></g><g clip-path="url(#clip-path-5)"><g clip-path="url(#clip-path-2)"><rect x="43" y="1.3" width="5.7" height="9.58" fill="#fff"/></g></g><g clip-path="url(#clip-path-7)"><g clip-path="url(#clip-path-2)"><rect x="44.6" y="8.4" width="9.2" height="3.6" fill="#fff"/></g></g><g clip-path="url(#clip-path-9)"><g clip-path="url(#clip-path-2)"><rect x="43.9" y="5.9" width="8.5" height="5.52" fill="#fff"/></g></g><g clip-path="url(#clip-path-11)"><g clip-path="url(#clip-path-2)"><rect x="47.4" y="7.4" width="2" height="2.01" fill="#fff"/></g></g><g clip-path="url(#clip-path-13)"><g clip-path="url(#clip-path-2)"><rect x="47" y="6.8" width="7.4" height="3.33" fill="#fff"/></g></g><g clip-path="url(#clip-path-15)"><g clip-path="url(#clip-path-2)"><rect x="45.5" y="2.8" width="4.1" height="5.81" fill="#fff"/></g></g></svg>