<svg xmlns="http://www.w3.org/2000/svg" viewBox="0 0 45 55"><g id="Layer_2" data-name="Layer 2"><g id="Layer_1-2" data-name="Layer 1"><path d="M0,48.1V25.5a53.5,53.5,0,0,1,.7-5.6L2.2,8.4A6.3,6.3,0,0,1,5.8,3.5a26.7,26.7,0,0,1,7.4-2.4A42,42,0,0,1,23.2,0,47.2,47.2,0,0,1,36.6,2.4,12.4,12.4,0,0,1,41.2,5a6.8,6.8,0,0,1,1.7,4.3c.7,5.1,1.4,10.3,2,15.4a1.3,1.3,0,0,1,.1.6V48H41.2v2.2a12.7,12.7,0,0,1-.1,2A3.1,3.1,0,0,1,38,55a3,3,0,0,1-3.2-2.7c-.1-1.2-.1-2.4-.1-3.5s-.2-.7-.7-.7H11c-.6,0-.8.1-.8.7a18.2,18.2,0,0,1,0,3.3A3.1,3.1,0,0,1,7,55a3.1,3.1,0,0,1-3.2-3V48.7c0-.5-.1-.7-.6-.6H0M22.5,26.7H38.9c1.7,0,2.3-.7,2.1-2.4-.5-4.1-1.1-8.2-1.7-12.2-.3-1.8-1-2.3-2.8-2.4H7.7a1.9,1.9,0,0,0-1.8,1.5l-.3,1.1c-.2,1.9-.5,3.7-.8,5.6s-.5,4.1-.8,6.1a2.9,2.9,0,0,0,0,1.3c.1.9.8,1.3,1.9,1.3H22.5M22.5,7h9.4a1.3,1.3,0,0,0,1.2-1.5c-.1-.8-.6-1.2-1.7-1.2H13a1.3,1.3,0,0,0-1.1,1.6A1.5,1.5,0,0,0,13.5,7h9M7,40.8a3.1,3.1,0,0,0,3.1-3.1A3.1,3.1,0,1,0,7,40.8m34.1-3.1a3.3,3.3,0,0,0-3.2-3.1,3.2,3.2,0,0,0-3.1,3.1A3.3,3.3,0,0,0,38,40.8a3.1,3.1,0,0,0,3.1-3.1" fill="#fff" fill-rule="evenodd"/></g></g></svg>