<svg xmlns="http://www.w3.org/2000/svg" viewBox="0 0 63.5 55"><g id="Layer_2" data-name="Layer 2"><g id="Layer_1-2" data-name="Layer 1"><path d="M46.8,36.3C46.4,24.1,50.6,17.9,58.5,19c.6,8.6-6.9,11.5-11.7,17.3M43.6,1.2C28.7-1.8,14.5,1.7.2,2.3.1,3.2-.1,3.6,0,3.8,5.4,8.7,5,15.6,5.8,21.9c1,7.8.8,15.9,1.2,23.8.1,2.6.4,5.1.7,8.2,12.4,1.5,24.7.8,37.4,1.1.2-2.3.8-4.2.6-6-.3-3.9,1.6-6.3,4.4-8.4A36.5,36.5,0,0,0,63,24c1.4-3.7-.3-10.7-3.6-12.7a4.4,4.4,0,0,0-3.4,0,18.3,18.3,0,0,0-5,2.6A45.6,45.6,0,0,0,45.9,18c-.8-5.9-1.5-11.1-2.3-16.8" fill="#fff" fill-rule="evenodd"/></g></g></svg>