
<svg width="178px" height="151px" viewBox="0 0 178 151" version="1.1" xmlns="http://www.w3.org/2000/svg" xmlns:xlink="http://www.w3.org/1999/xlink">
    <defs>
        <polygon id="path-tvb34mwv6f-1" points="4.54747351e-13 0 158 0 158 82 4.54747351e-13 82"></polygon>
    </defs>
    <g id="Desktop" stroke="none" stroke-width="1" fill="none" fill-rule="evenodd">
        <g id="Interactive-map-closed" transform="translate(-31.000000, -26.000000)">
            <g id="Group-3" transform="translate(120.014900, 101.649346) rotate(-30.000000) translate(-120.014900, -101.649346) translate(41.014900, 60.649346)">
                <mask id="mask-tvb34mwv6f-2" fill="white">
                    <use xlink:href="#path-tvb34mwv6f-1"></use>
                </mask>
                <g id="Clip-2"></g>
                <path d="M0.0407734449,68.5249802 C0.404572984,71.4267715 9.58218712,67.5680593 10.6057587,67.3905759 C14.4891646,66.7129121 17.9384775,68.7210807 21.1744436,70.9538962 C23.0008406,72.2136559 24.6977497,74.4948759 26.7498257,75.3822929 C30.410019,76.9659908 28.6267847,75.2457672 30.7133909,75.7211248 C34.9704621,76.689216 38.5159661,80.7278939 42.9136242,81.2218686 C46.5886162,81.6351691 49.3374608,80.8209796 53.3639201,81.2715143 C56.0868672,81.5768354 60.6682749,82.5436854 63.2925645,81.5892468 C64.8772506,81.0133567 65.2533823,79.4371056 66.0192112,79.0784154 C71.27149,76.6234354 86.4832436,82.3848192 87.2367403,74.6736005 C92.1794811,72.9136603 103.88766,72.0597542 104.218163,65.9421625 C108.321082,64.161123 123.643825,63.1545563 122.935957,57.8660479 C125.471455,54.8314543 137.399147,58.6876843 135.651676,52.6222206 C137.601395,50.6512862 151.554032,47.3796344 147.530039,44.2755368 C148.927276,41.4941363 155.607622,42.8556697 157.376058,40.7420039 C159.592152,38.0909234 155.31535,36.4017284 153.720798,34.0857564 C154.51869,33.5408948 154.680242,32.880607 154.204219,32.1024106 C153.349599,31.5612724 152.488812,31.0313045 151.619393,30.5137481 C150.349178,29.4215426 148.873015,28.5006148 147.670626,27.3289763 C146.183365,27.4282677 145.290514,26.9082289 144.994542,25.7663778 C145.260917,25.1793174 145.339843,24.5475758 145.23132,23.8699119 C143.200208,22.1869226 141.278853,22.2030575 138.976434,20.9966669 C136.251021,19.569353 136.953955,18.1643796 135.852691,16.9294427 C134.317333,15.207978 132.35035,14.0549566 130.08616,13.1588516 C128.852941,12.6698415 127.052442,12.640054 125.951177,11.9934188 C125.198914,12.082781 124.492279,11.9834896 123.833741,11.6955446 C123.444044,11.1010373 123.590797,10.5040477 124.272767,9.90705812 C122.1134,8.17690539 121.665742,8.17690539 118.308921,7.46200727 C115.694497,6.90473426 112.24765,6.38593667 109.787379,5.42405119 C107.487426,4.52546397 108.804503,3.53999678 105.552506,2.72828954 C102.864089,2.05807256 99.3358497,2.98148262 96.5598742,2.9430072 C95.245263,-0.205771476 95.3007578,-0.517298259 90.9635274,0.56249577 C87.5068152,1.42260757 83.7245332,2.24052051 80.4010086,3.5697842 C77.1120141,2.09158341 72.2839626,4.74390506 69.1145903,6.33629097 C67.190769,7.30314103 64.3050371,8.41892819 63.1618433,8.64605728 C62.6845876,8.74038411 61.4711004,8.47105618 60.054132,8.86946294 C57.5001359,9.5856022 55.2963739,11.2934144 53.1074106,12.6797706 C51.395703,13.7657703 50.1279541,14.0425451 48.6739891,14.8095712 C43.2527594,17.6679226 39.6307958,22.251462 35.5722728,26.6153193 C32.1735219,30.269243 30.3668564,35.6160852 27.0248335,39.4487334 C26.4168566,40.1462555 25.8754736,38.3676982 25.4352145,38.8591907 C24.1686988,40.2716109 23.4287675,42.3890001 22.4915213,44.1390111 C19.6242876,49.4970236 16.6818276,57.1610789 11.8426771,61.0086208 C8.67947097,63.525658 -0.692991727,62.6866456 0.0407734449,68.5249802 M43.7139832,69.6966188 C38.0584419,69.5787102 30.3434252,65.2222998 25.8014805,62.1132377 C26.204743,61.7967464 26.6092388,61.480255 27.0149677,61.1637637 C28.7180429,61.8513566 44.0111889,67.7951884 44.3589566,69.6171857 C44.1209454,69.6482142 43.9174643,69.7003422 43.7139832,69.6966188 M63.5947031,67.138624 C54.1396147,65.4494289 43.8508705,61.6391213 36.2579425,55.507877 C39.6295626,53.9477608 45.7734586,59.6011652 48.9083007,60.9552517 C53.7449847,63.0453358 58.8468108,64.605452 63.7759862,66.468407 C63.8240818,66.6942949 63.8561455,66.9201829 63.5947031,67.138624 M77.2550675,61.1091534 C72.5528043,60.97511 67.5866323,59.4162349 63.1630765,57.8871473 C61.1270323,57.1846606 51.5190248,54.7644326 50.9616099,53.3942112 C49.0205236,52.6569725 48.0240828,52.4931417 46.4591282,51.0720335 C47.0510732,50.8349753 47.6516507,50.6202576 48.244829,50.3881639 C53.5797334,52.2461544 59.1563487,53.4190341 64.4653555,55.1454634 C68.5411436,56.4697625 75.3361791,57.4986697 78.6930006,59.912692 C78.7299971,60.0901753 78.7928913,60.3992198 78.8557854,60.7095055 C78.3698973,61.1476288 77.8124824,61.1240471 77.2550675,61.1091534 M92.4076266,57.5383862 C81.609563,53.4699209 70.1073314,52.5291349 59.9826053,46.2055135 C60.4734264,46.0466473 60.9568481,45.870405 61.4476692,45.7152622 C65.8502602,48.2881507 70.8756267,49.5925916 75.7665724,50.7505776 C80.5255637,51.8787762 90.5540988,52.8952719 93.4348978,57.4130308 C93.103162,57.6327131 92.7800587,57.6786353 92.4076266,57.5383862 M109.779979,52.3528926 C99.1484004,51.3438437 84.4324008,48.264569 75.6407841,41.8019397 C76.3227541,41.63935 76.9997912,41.4569021 77.6829944,41.3005181 C80.9423916,43.2230479 110.359592,48.8714877 110.185708,52.3454458 C110.020457,52.3491692 109.899602,52.3640629 109.779979,52.3528926 M121.424031,46.471118 C114.598165,47.8574743 104.411778,41.1416518 99.1816973,37.330103 C99.8192714,37.2519111 100.455612,37.1811659 101.093186,37.1166265 C104.489471,39.6274579 109.109108,41.0870416 113.085006,42.3976881 C113.535131,42.5466252 120.626139,44.0844009 120.739595,44.6416739 C121.560918,44.6218156 122.970488,44.9134841 123.062979,45.896469 C122.577091,46.306046 121.985146,46.3569329 121.424031,46.471118 M128.556969,43.3930845 C123.340453,42.3455601 118.920597,40.4553 114.527872,37.3859545 C118.229995,38.04376 122.844699,39.3395128 126.162058,41.2173615 C125.868552,41.0510484 130.752098,43.8349312 128.556969,43.3930845 M122.914993,27.7174539 C127.71098,26.4055662 133.129744,26.9032644 137.751848,25.585171 C137.785145,26.2144302 141.613056,25.5280784 141.001379,25.7874772 C142.370252,26.6165604 143.737892,27.4468848 145.106765,28.275968 C144.767629,28.6557577 144.317505,28.597424 143.758856,28.0997258 C142.335722,28.48448 140.141826,27.7497236 138.793918,28.3442309 C137.94423,27.5461762 132.643856,28.2871383 131.529026,28.7202971 C130.572048,27.8899727 128.774015,29.1522147 128.066148,28.5477783 C127.126435,29.84229 123.809076,27.4729488 122.914993,27.7174539 M104.614026,24.3105176 C106.497151,23.6514709 113.020878,20.7521618 114.616664,22.2390506 C115.074188,21.3925914 119.750553,22.2179512 120.786457,22.2762849 C120.492951,22.5009317 118.903332,23.8475714 118.817007,23.0110413 C118.683819,23.0569636 118.570363,23.0966801 118.45814,23.1351556 C118.451974,23.0879921 118.444575,23.025935 118.435942,22.965119 C114.904004,24.1528925 105.917538,26.6264896 101.833118,26.4676233 C102.516321,25.4610567 103.443701,24.7424352 104.614026,24.3105176 M88.9583137,23.5881726 C89.2431872,23.4479235 89.2209893,23.0445521 89.5514919,22.973807 C92.1363185,18.2599476 101.004395,15.9973447 105.304629,14.0177223 C105.349024,14.1480423 105.377388,14.2287165 105.424251,14.3677245 C105.981666,14.1219783 106.535381,13.8787143 107.126093,13.6180744 C107.277779,13.7099189 107.459062,13.8191395 107.655144,13.9382892 C108.30135,13.6193155 108.94879,13.6280035 109.657891,13.623039 C109.636926,13.7421886 109.615961,13.8563738 109.59623,13.9705589 C109.713386,13.9730412 109.839174,13.9755234 110.038955,13.980488 C107.438097,17.140437 97.9373796,20.5175859 94.0835709,21.6668839 C94.0934366,21.7140473 94.1107017,21.7959627 94.1230339,21.8580199 C91.0535524,24.0995233 88.7351011,26.9280872 84.9614516,27.4791545 C86.2785293,26.2653171 87.2786697,24.4110501 88.9583137,23.5881726 M71.1715993,28.493168 C72.4775779,27.0584072 75.9453891,24.2757656 76.2413616,22.416534 C79.2183518,20.5560613 81.429513,17.3911478 84.6124507,15.7702156 C86.694124,14.7090387 89.2616855,14.8691461 91.1879732,13.876232 C91.1966057,13.9953817 91.2003054,14.0574389 91.2052383,14.1232194 C91.6195998,13.8898846 92.0499931,13.8290686 92.5371146,13.9271189 C92.5593125,14.1778297 92.6740018,14.3714479 92.8848822,14.5079736 C92.6888005,14.6010593 92.5050509,14.6879393 92.3188348,14.7760604 C92.3151352,14.7140033 92.3114355,14.6531873 92.3052694,14.5414845 C89.4207707,16.8959319 84.6815109,18.7365463 81.4258134,20.7174098 C80.8264691,23.1115738 71.2159951,30.2419379 69.681871,30.6428269 C70.0247058,29.824914 70.5204597,29.1087747 71.1715993,28.493168 M53.6968892,34.8738819 C55.443127,34.4419643 58.8418779,29.2738467 60.2884435,27.7472413 C62.7832451,25.1147779 66.7899729,20.0732569 70.8349305,19.8113758 C70.7338066,19.7369072 70.6388487,19.6661621 70.5808875,19.6239632 C71.2862886,19.4427564 71.913997,19.1138537 72.4640125,18.6360138 C72.4492139,18.8097737 72.4405814,18.9152708 72.4282492,19.0567611 C72.5873344,19.003392 72.7168224,18.959952 72.900572,18.8978948 C73.3371314,19.909426 69.2823081,22.3160015 68.5867727,22.6473865 C68.5867727,22.6399397 68.5818398,22.7826711 68.5781402,22.9365727 C67.0353835,24.1193816 62.619227,29.2688821 60.9469824,29.58165 C60.6707414,30.2667607 56.1768921,33.9988764 55.5097208,34.1316787 C55.3457027,35.1208693 53.7659494,35.4261903 53.1727712,35.6247732 C53.301026,35.3455161 53.4749098,35.0948053 53.6968892,34.8738819 M35.3219294,44.9283778 C37.5170588,43.0629405 42.4622661,33.1648286 45.5206487,33.3534823 C45.4478888,33.5483417 45.3788285,33.7270662 45.3110015,33.9070319 C45.3258001,33.9144787 45.3393655,33.9206844 45.3541642,33.9281313 C46.5109234,32.4213842 47.7071456,31.1579011 48.9070675,29.7144523 C49.7370237,34.5735254 40.9145766,40.8636359 38.43704,44.5088716 C37.1224288,44.5696876 35.4711489,45.7537376 34.282326,46.2154426 C34.5265033,45.6991273 34.9100343,45.27838 35.3219294,44.9283778" id="Fill-1" fill="#006C56" mask="url(#mask-tvb34mwv6f-2)"></path>
            </g>
        </g>
    </g>
</svg>