<svg xmlns="http://www.w3.org/2000/svg" xmlns:xlink="http://www.w3.org/1999/xlink" viewBox="0 0 29.4 57"><defs><clipPath id="clip-path" transform="translate(1 1)"><path d="M12.9,5.8v.5a.9.9,0,0,0-.1.5,1.1,1.1,0,0,1-.7.9h-.2c-.1,0-.1-.1,0-.2a.9.9,0,0,0,.1-.5c0-.4-.1-.8-.1-1.2A7.3,7.3,0,0,0,11,3.5L9.7,1.7,8.8.5c0-.1,0-.2.1-.2h1.5c.2.1.5.2.6.4a1.8,1.8,0,0,1,.5.7c0,.1,0,.2.1.2l.6,1.1a5.9,5.9,0,0,1,.5,1.9,5.9,5.9,0,0,1,.2,1.4" fill="none" clip-rule="evenodd"/></clipPath><clipPath id="clip-path-2" transform="translate(1 1)"><rect x="-888.9" y="-965.7" width="1920" height="1080" fill="none"/></clipPath><clipPath id="clip-path-3" transform="translate(1 1)"><path d="M25.2,43.2h-.1A.3.3,0,0,1,25,43c0-.1,0-.2.1-.2h.1A.3.3,0,0,1,25.2,43.2Zm-.3-1.3a.8.8,0,0,1-.2-.5h.1c.2.1.3.2.3.4a.1.1,0,0,1-.1.1C25,42,24.9,41.9,24.9,41.9Zm-.1,2a3.5,3.5,0,0,1-.5.8h-.2a.1.1,0,0,1-.1-.1.4.4,0,0,0,.1-.3.6.6,0,0,0,0-.6v-.4c.1,0,.1.1.2.2v.3h.1c.1,0,.1,0,.1-.1h.1l.2.2Zm-.9-2.1H24l.2.3c0,.1,0,.1-.1.1H24A.2.2,0,0,1,23.9,41.8Zm-.1-2.4a.1.1,0,0,1-.1-.1.4.4,0,0,1-.1-.3h.1a.5.5,0,0,1,.2.4h-.1Zm-.1,1.7h0C23.6,41.2,23.6,41.1,23.7,41.1Zm.1,2.7h-.2v-.2h.1c.1,0,.1.1.1.2Zm-.4-3.5h-.3c0-.2,0-.3.2-.4h0c.1,0,.2.2.2.3Zm.1,4.9c-.1.1-.2.2-.3.1s-.1-.1-.1-.2a.2.2,0,0,1,.2-.2C23.4,45,23.5,45.1,23.5,45.2Zm-.6-1.1a.4.4,0,0,1,0-.5h.2l.2.2c0,.1,0,.1-.1.1s-.1.2-.2.3S22.9,44.2,22.9,44.1Zm-.2-1a.1.1,0,0,1-.1-.1h.2A.1.1,0,0,1,22.7,43.1Zm0,2.8a.3.3,0,0,1-.1.2.1.1,0,0,1-.1-.1c-.1-.1,0-.2.1-.3h.1Zm-.6-1.1c-.1,0-.2-.2-.2-.3l.2-.3a.4.4,0,0,1,.5.2h0C22.5,44.6,22.4,44.8,22.1,44.8ZM21.7,43h-.2c0-.2.2-.4.3-.3a.1.1,0,0,1,.1.1c.1,0,.1.1.1.2h-.3Zm0,2.4c-.1.1-.2.1-.2-.1h-.1c-.3,0-.4-.1-.4-.4h.1c.3.1.3.2.3.5h.4C21.8,45.4,21.8,45.4,21.7,45.4Zm0,.5a.1.1,0,0,1-.1-.1h.1C21.8,45.8,21.7,45.9,21.7,45.9Zm-.1-1.8c0,.1,0,.1-.1.1s-.2,0-.2-.1v-.5C21.6,43.8,21.7,43.9,21.6,44.1Zm-.6-3c0-.1.1-.2.1-.3a.1.1,0,0,0,0-.2c0-.2.1-.2.2-.3h.3c.1.1.2.1.2.2h0a2.5,2.5,0,0,0-.4.7h-.1a.2.2,0,0,1-.3,0Zm-.1,5.6c0,.2-.1.3-.2.5h-.2c.1-.1.1-.3,0-.3V46c0-.1.2-.1.3-.1a.3.3,0,0,0,.1.2.6.6,0,0,1,.1.4C21,46.5,21,46.6,20.9,46.7Zm-.7-3c-.1-.1-.1-.1,0-.2h.1c0,.1.1.1.1.2h-.2ZM20,48.4h-.1l-.4-.2h0a.1.1,0,0,1,.1-.1h.1c.2-.1.3,0,.4.1h.1A.2.2,0,0,1,20,48.4Zm-.6-1.1s-.1.1-.1,0h-.2c-.1-.1-.2-.2-.1-.3a.5.5,0,0,1,.4.2Zm-.6-1.4h-.1c-.1-.1-.1-.1,0-.2h0c.1,0,.1,0,.1.1h.1A.1.1,0,0,1,18.8,45.9Zm0-.9H19c.1,0,.1.1.1.2h-.3Zm.6-2.3Zm.2.7h.2c0,.1,0,.1-.1.2h-.2A.2.2,0,0,1,19.6,43.4Zm0-1.4a.1.1,0,0,1,.1.1h-.1c-.1,0-.1-.1-.1-.2Zm0-1.2h.3v-.2h0v.2h-.1c-.1-.1-.2-.2-.2-.3Zm.4,4.3h-.2a.2.2,0,0,1-.1-.3.1.1,0,0,1,.1-.1C19.9,44.9,20,44.9,20,45.1Zm-.1-2.8h-.1v-.2a.8.8,0,0,1,.2-.4h.2A.5.5,0,0,1,19.9,42.3Zm0-2.5c0-.2,0-.3.1-.3s.1.2.2.2,0,.3.1.4,0,.2-.1.2a.3.3,0,0,1-.3-.3Zm.6-.9.2-.2h0c0-.1-.1-.2,0-.2h.2l.2.2a.1.1,0,0,1-.1.1h-.3c.1.1.2.2.2.3s0,.4,0,.6h-.1a.1.1,0,0,1-.1-.1.2.2,0,0,1-.2-.2Zm.8-1h.1v.2h-.2A.1.1,0,0,1,21.3,37.9Zm.4.4h.1c0,.1,0,.3-.1.3h-.2C21.5,38.4,21.6,38.3,21.7,38.3Zm.4-.9h.2v.2c0,.1-.1.1-.1.3v.3h-.1c-.1,0-.1,0-.1-.1h0A1.3,1.3,0,0,1,22.1,37.4Zm.5,4.2a.2.2,0,0,1-.2.2c-.1,0-.3-.2-.2-.3h.4Zm-.1-1.8h.1c0,.1,0,.1.1.1s-.1.4-.2.6-.2.1-.2,0-.2-.1-.1-.2S22.3,40,22.5,39.8Zm.2-3.8h.1c.1.1.1.1.1.2a.1.1,0,0,0-.1.1C22.7,36.2,22.7,36.1,22.7,36Zm.1,3.5c0,.1,0,.1-.1.1h.1Zm.2,2h0a.1.1,0,0,0-.1-.1.1.1,0,0,1,.1-.1Zm.1-3.1h0c-.1.1-.1.1-.2,0a.5.5,0,0,1-.2-.4h.2C23,38.2,23.1,38.3,23.1,38.4ZM24.3,41h-.1c-.1-.1-.2-.2-.2-.3h.1C24.2,40.8,24.3,40.8,24.3,41ZM24,37.2h0c.2.1.3.2.3.4h-.2c-.1-.2-.2-.3-.2-.4Zm.6,2h.1c.1.1.2.2.1.3h0c-.1,0-.2,0-.2-.1A.1.1,0,0,1,24.6,39.2Zm.3.9h.2v.2a.1.1,0,0,0-.1.1H25c-.1,0-.1-.1-.1-.2Zm-6.4,3.1h-.1c0-.1,0-.1.1-.2a.3.3,0,0,1,.1.2A.1.1,0,0,1,18.5,43.2Zm-.2-1c-.2-.1-.2-.1-.2-.3h0c.2-.1.3,0,.3.1A.3.3,0,0,1,18.3,42.2Zm.1-1.4c.1,0,.2,0,.2.2a.1.1,0,0,0-.1.1.2.2,0,0,1-.2-.2A.1.1,0,0,1,18.4,40.8ZM17.8,44s-.1,0,0-.1h0Zm.1,3.2h-.3a.1.1,0,0,1-.1-.1h.1c.1,0,.2,0,.2.1A.1.1,0,0,1,17.9,47.2ZM17.4,45a.1.1,0,0,1,.1-.1c.1,0,.1,0,.1.1h-.2Zm-.3-2.3h0l.3-.2h.1c0,.1,0,.2-.1.2Zm.1,1.1h0Zm.4-3.4a.1.1,0,0,1,.1.1h-.1ZM5,32.3l.6-1.7A5.8,5.8,0,0,1,5,32.3Zm22.4,9.6c-.1-.1,0-.2,0-.3s-.1-.3-.1-.5a.9.9,0,0,1-.1-.5v-.3l-.3-1.4v-.2a4.9,4.9,0,0,0-.4-1.1,5.6,5.6,0,0,0-.4-1.2,14.2,14.2,0,0,0-.8-1.8l-.5-1.1a1,1,0,0,1-.4-.5,4.4,4.4,0,0,0-.8-1.1l-.4-.6a10,10,0,0,0-.8-1.4l-.2-.2-.6-1.1c-.1-.1-.1-.3-.2-.4l-.4-.5-.4-.5-.4-.6a1.6,1.6,0,0,0-.4-.7c-.2-.2-.2-.5-.3-.7l-.2-.3c-.2-.3-.3-.7-.5-1s-.1-.2-.2-.4v-.2a11.1,11.1,0,0,1-.7-1.6l-.3-1.1a12.4,12.4,0,0,0-.4-1.6c-.1-.6-.1-1.2-.2-1.8a1.5,1.5,0,0,1-.1-.7,10.9,10.9,0,0,0-.1-1.8v-.4a7.8,7.8,0,0,0-.4-2.2,10.8,10.8,0,0,0-.8-1.9c0-.1,0-.2-.1-.2l-.8-1-.8-.5-1-.3h-.5l-.9.3-.6.4L10,10l-.5.8A7.5,7.5,0,0,0,8.8,12a23.3,23.3,0,0,0-1.1,2.8,2.9,2.9,0,0,0-.2.9c-.2.6-.2,1.2-.4,1.8s-.1.8-.2,1.2-.1.7-.2,1.1a.9.9,0,0,1-.1.5l-.3,1.8A12.5,12.5,0,0,1,6,24c-.1,1.1-.4,2.2-.6,3.4s-.3,1.3-.5,1.9-.6,2.1-1,3.2l-.5,1.4c-.5,1.1-1.1,2.3-1.7,3.4A20.3,20.3,0,0,0,.6,39.9L.3,41.4a5.2,5.2,0,0,0-.2,1.1,1.5,1.5,0,0,1-.1.7v1.4a13.6,13.6,0,0,0,.2,2,1.8,1.8,0,0,0,.1,1c.1.3.1.5.2.8a9.1,9.1,0,0,0,.7,1.4,7,7,0,0,0,1.5,1.9l1.8,1.4,2.3,1.1h.3l2.2.4h.5a11.7,11.7,0,0,0,4.6.1h1l1.1-.3A13,13,0,0,0,19.7,53l.3-.2,1.7-1.3,2-1.6a12.9,12.9,0,0,0,1.9-2.1,3.9,3.9,0,0,0,.6-1.1.8.8,0,0,0,.2-.4.9.9,0,0,0,.3-.7l.3-.8c.1-.1.1-.2.2-.4a5.9,5.9,0,0,0,.2-1.4Z" fill="none" clip-rule="evenodd"/></clipPath><clipPath id="clip-path-4" transform="translate(1 1)"><rect y="8.2" width="27.4" height="46.84" fill="none"/></clipPath></defs><g id="Layer_2" data-name="Layer 2"><g id="Layer_1-2" data-name="Layer 1"><g clip-path="url(#clip-path)"><g clip-path="url(#clip-path-2)"><rect x="8.8" width="6.1" height="9.7" fill="#fff"/></g></g><g clip-path="url(#clip-path-3)"><g clip-path="url(#clip-path-4)"><rect y="8.2" width="29.4" height="48.84" fill="#fff"/></g></g></g></g></svg>