
<svg width="58px" height="38px" viewBox="0 0 58 38" version="1.1" xmlns="http://www.w3.org/2000/svg" xmlns:xlink="http://www.w3.org/1999/xlink">
    <g id="Desktop" stroke="none" stroke-width="1" fill="none" fill-rule="evenodd">
        <g id="Interactive-map-opened" transform="translate(-175.000000, -971.000000)" fill="#FFFFFF">
            <path d="M222.194549,993.986783 C221.916595,993.066795 222.013161,992.93891 223.17587,992.663566 C222.786995,993.188155 222.526006,993.540491 222.194549,993.986783 L222.194549,993.986783 Z M220.648186,993.784516 C220.331084,993.764942 219.989188,993.745367 219.595093,993.721878 C219.241453,991.516517 219.413706,989.377708 219.411096,987.238899 C219.914806,987.129283 220.273666,987.112319 220.316729,987.716509 C220.449834,989.643917 220.601208,991.568715 220.742142,993.496122 C220.746057,993.560065 220.700384,993.627922 220.648186,993.784516 L220.648186,993.784516 Z M218.286231,993.091589 C218.275791,993.503952 218.284926,993.503952 217.68465,993.694474 C217.582864,991.533481 217.483688,989.401197 217.380597,987.20236 L218.365833,987.20236 C218.386712,987.499888 218.427165,987.780452 218.419336,988.059711 C218.381492,989.737873 218.327989,991.414731 218.286231,993.091589 L218.286231,993.091589 Z M216.491928,993.582249 C216.028672,993.655326 215.612393,993.721878 215.023862,993.815835 C214.95731,991.662671 214.893367,989.609988 214.8229,987.379833 C215.378808,987.314586 215.903397,987.253253 216.491928,987.184091 L216.491928,993.582249 Z M213.819395,993.719268 C213.606689,993.750587 213.378323,993.784516 213.097759,993.826274 C212.924201,991.658756 212.755863,989.552571 212.574475,987.298926 C213.101674,987.32372 213.493158,987.341989 214.028187,987.366783 C213.95772,989.497763 213.889862,991.566105 213.819395,993.719268 L213.819395,993.719268 Z M211.980724,993.651411 C211.771932,993.697084 211.500503,993.757112 211.191231,993.824969 C211.116849,991.605253 211.045077,989.44687 210.970695,987.231069 C211.34391,987.261083 211.625778,987.284572 211.980724,987.313281 L211.980724,993.651411 Z M210.09638,993.755807 C209.300362,994.006357 209.197271,993.959379 209.116364,993.258622 C209.095485,993.077234 209.09679,992.891932 209.10201,992.709239 C209.156817,990.925376 209.21554,989.140207 209.276873,987.223239 C209.563961,987.238899 209.849745,987.254558 210.276462,987.278047 C210.21513,989.458615 210.156407,991.602643 210.09638,993.755807 L210.09638,993.755807 Z M208.095895,993.954159 C208.020208,993.971123 207.945826,993.988088 207.871444,994.005052 C207.767048,993.854983 207.620894,993.717964 207.571306,993.55093 C207.509974,993.347358 207.528243,993.118993 207.516498,992.899761 C207.430372,991.372973 207.34294,989.846184 207.264643,988.319395 C207.247679,987.997073 207.262033,987.673446 207.262033,987.206275 C207.697886,987.232374 208.017598,987.250643 208.422132,987.275437 C208.734014,989.557791 208.071101,991.735748 208.095895,993.954159 L208.095895,993.954159 Z M206.702211,978.60667 C206.246784,978.079471 205.938817,977.605775 205.522538,977.265184 C204.74218,976.62837 204.265874,975.815387 203.750419,974.784479 C205.437717,975.673148 206.271578,977.082491 207.271168,978.525763 C206.960591,978.570132 206.73614,978.60145 206.702211,978.60667 L206.702211,978.60667 Z M203.685172,978.550557 C203.321092,977.142519 202.968756,975.774934 202.615115,974.407349 C202.681667,974.369505 202.749525,974.331662 202.816077,974.293818 C203.100556,974.746635 203.383729,975.202062 203.669513,975.654879 C203.999664,976.178163 204.290668,976.735375 204.679542,977.211681 C205.037098,977.648839 205.501659,977.99987 206.0928,978.550557 L203.685172,978.550557 Z M205.805712,986.085325 C202.746915,986.809571 199.571977,986.311081 196.304388,986.112729 L196.304388,979.958596 C199.50151,979.865945 202.600761,979.777208 205.805712,979.684557 L205.805712,986.085325 Z M205.489915,989.035811 C205.564297,990.262462 204.4838,990.723109 203.8509,991.495638 C203.779128,990.284646 204.927482,989.859233 205.489915,989.035811 L205.489915,989.035811 Z M203.99053,988.299821 C203.728235,987.408542 203.728235,987.408542 205.437717,987.037937 C205.932292,988.138008 205.020133,988.410742 204.401588,988.854424 C204.530778,988.555591 204.659968,988.256758 204.881809,987.745218 C204.453786,988.011428 204.226725,988.153667 203.99053,988.299821 L203.99053,988.299821 Z M203.798703,993.984173 C203.548153,993.220778 203.683867,992.607453 204.23586,992.064595 C204.645614,991.661366 205.008389,991.212464 205.448156,990.721804 C205.771783,991.5648 205.72872,992.210749 205.072331,992.764047 C204.783938,993.006767 204.556877,993.322564 204.302412,993.604433 C204.358525,993.665766 204.415943,993.727098 204.47336,993.788431 C204.842661,993.493513 205.213266,993.198594 205.707841,992.803195 C205.737855,993.254707 205.760039,993.586164 205.787443,993.984173 L203.798703,993.984173 Z M202.592931,998.444484 C201.696432,998.526695 200.796018,998.576284 199.817307,998.645446 L199.817307,996.971198 L203.660378,996.971198 C203.822192,998.086928 203.648634,998.346613 202.592931,998.444484 L202.592931,998.444484 Z M203.679952,1002.0083 L199.403639,1002.0083 C199.37493,1001.41063 199.339697,1000.71118 199.307073,1000.02086 L203.679952,1000.02086 L203.679952,1002.0083 Z M203.626449,1004.84003 C202.284963,1005.32417 200.956527,1005.27066 199.517169,1005.2537 C199.442787,1004.68344 199.376235,1004.16407 199.300548,1003.58598 L203.626449,1003.58598 L203.626449,1004.84003 Z M201.180978,988.368983 C201.106596,987.742608 201.25275,987.499888 201.953507,987.528597 C201.648149,987.861359 201.458931,988.066235 201.180978,988.368983 L201.180978,988.368983 Z M202.592931,992.255117 C202.633384,993.522221 202.318892,993.903266 201.264494,993.943719 C201.696432,993.395641 202.067037,992.92325 202.592931,992.255117 L202.592931,992.255117 Z M201.370195,992.854088 C201.394989,992.061985 201.819097,991.543921 202.821297,991.002368 C202.324112,991.637877 201.881734,992.201614 201.370195,992.854088 L201.370195,992.854088 Z M202.078782,988.251538 C202.266694,988.007513 202.455911,987.764793 202.643824,987.520767 C202.724731,987.595149 202.805637,987.670836 202.886544,987.745218 C202.659483,987.94879 202.431117,988.151057 202.202752,988.354629 C202.160993,988.319395 202.119235,988.285467 202.078782,988.251538 L202.078782,988.251538 Z M203.057492,988.618228 C203.110995,989.587804 202.833041,990.023657 201.36889,991.268577 C201.073972,990.353809 201.564632,989.585194 203.057492,988.618228 L203.057492,988.618228 Z M198.548898,995.979438 C198.768129,995.616662 198.86861,995.444409 198.976921,995.277376 C198.991275,995.253887 199.043473,995.244752 199.078707,995.243447 C200.335372,995.242142 201.592036,995.242142 202.850006,995.242142 C202.85653,995.315219 202.86436,995.388296 202.87219,995.461374 C201.558107,995.968998 200.142239,995.591868 198.548898,995.979438 L198.548898,995.979438 Z M198.808583,994.243857 C198.448417,993.364323 198.640245,993.013292 200.210097,991.614388 C200.524589,993.001547 199.38798,993.425655 198.808583,994.243857 L198.808583,994.243857 Z M200.567652,988.991443 C199.969986,990.032791 199.223556,990.776612 198.530629,991.563495 C198.589352,990.68657 199.647664,989.351609 200.567652,988.991443 L200.567652,988.991443 Z M198.404049,989.817475 C198.936468,988.999273 199.561538,988.261978 200.264904,987.593844 C200.337981,987.657787 200.411058,987.720424 200.485441,987.784367 C199.846016,988.519052 199.206592,989.255043 198.567168,989.991033 C198.51236,989.932311 198.457552,989.874893 198.404049,989.817475 L198.404049,989.817475 Z M197.425338,989.394672 C197.074307,989.959714 196.548414,990.447765 196.628015,991.213769 C196.63715,991.30903 196.451847,991.423866 196.284814,991.610473 C195.831997,989.988423 196.588867,988.994053 197.6263,987.978804 C197.772454,988.558201 197.681108,988.981004 197.425338,989.394672 L197.425338,989.394672 Z M196.226091,994.405671 C195.937698,992.667481 196.102121,992.235543 197.587152,991.217684 C197.196973,991.781421 196.806793,992.346464 196.417919,992.910201 C196.462287,992.963704 196.50796,993.018512 196.552328,993.072014 C196.868126,992.848868 197.182618,992.625722 197.50755,992.396052 C197.741136,992.872357 197.327467,993.05766 197.119981,993.321259 C196.934678,993.557455 196.725886,993.774076 196.659334,994.147291 C196.941203,993.993307 197.224376,993.839324 197.613251,993.627922 C197.362701,994.481358 196.812013,994.465699 196.226091,994.405671 L196.226091,994.405671 Z M196.303083,987.244118 C196.673689,987.296316 196.973826,987.338075 197.418814,987.400712 C197.053428,987.910947 196.76634,988.311566 196.480556,988.712184 C196.420529,988.70044 196.361806,988.69 196.303083,988.678256 L196.303083,987.244118 Z M195.794154,978.816767 C195.727602,978.759349 195.659744,978.701931 195.593192,978.644514 C196.123001,977.903303 196.641065,977.152959 197.185228,976.423493 C197.446218,976.075072 197.756795,975.764494 198.106521,975.478711 C198.045188,976.221226 197.562358,976.758864 197.157824,977.301723 C196.7559,977.840666 196.581037,978.640599 195.794154,978.816767 L195.794154,978.816767 Z M194.77499,978.936822 C194.703218,978.871575 194.631446,978.807632 194.560978,978.74369 C194.705828,978.388744 195.042504,978.191697 195.328288,977.954196 L195.520115,978.132974 C195.27087,978.400488 195.02293,978.668003 194.77499,978.936822 L194.77499,978.936822 Z M199.634615,975.011539 C199.224861,976.077682 198.815108,977.142519 198.404049,978.208661 C198.491481,978.246505 198.577607,978.284348 198.663734,978.322192 C199.594161,976.918068 199.972596,975.204672 200.849521,973.770534 C200.934342,973.804463 201.019164,973.837087 201.103986,973.86971 C200.987845,974.771429 200.86518,975.671843 200.760784,976.576172 C200.713806,976.974181 200.675963,977.377409 200.682488,977.778028 C200.687707,978.119925 200.86779,978.320887 201.36367,978.202136 C201.441967,976.791488 201.521569,975.349521 201.610305,973.75096 C202.260169,974.490865 202.185787,975.316897 202.369785,976.046363 C202.564222,976.820197 202.688192,977.613605 202.868275,978.525763 C200.876925,978.747604 198.916893,978.930297 196.813318,978.760654 C197.748965,977.402203 198.601096,976.165113 199.453227,974.929328 C199.513255,974.956732 199.574587,974.984136 199.634615,975.011539 L199.634615,975.011539 Z M183.774281,1003.15012 C183.81604,999.903415 183.292756,996.791115 183.617688,993.630532 C183.804295,991.825789 183.581149,989.980594 183.538086,988.152362 C183.531561,987.860054 183.510682,987.567745 183.495023,987.275437 C183.449349,986.449405 183.31494,985.610324 184.163156,985.030927 C184.345848,984.905652 184.407181,984.604209 184.524626,984.386283 L189.204168,984.386283 C189.27855,984.785597 189.462548,985.268428 189.437754,985.740819 C189.350323,987.456825 189.158495,989.166306 189.072369,990.881007 C189.018866,991.938015 189.063234,993.001547 189.103687,994.061165 C189.168935,995.740632 189.268111,997.418795 189.355542,999.098263 C189.393386,999.829033 189.452108,1000.5585 189.474293,1001.29057 C189.495172,1001.97567 189.478207,1002.66207 189.478207,1003.37197 C187.54819,1003.87437 185.734313,1003.52856 183.774281,1003.15012 L183.774281,1003.15012 Z M176.329555,983.742944 C176.791507,983.652903 177.136013,983.568081 177.501398,984.078315 C176.959845,984.287107 176.645353,984.210115 176.329555,983.742944 L176.329555,983.742944 Z M231.894225,1000.71509 C232.058648,999.261381 232.247865,997.600183 232.855971,996.190839 C232.849446,996.090358 232.844227,995.989877 232.846836,995.888091 C232.178703,994.926345 231.390515,994.074214 230.321763,993.494817 C229.808918,993.216864 229.224302,993.06027 228.737556,992.747083 C227.227732,991.773592 225.606987,991.235953 223.797025,991.262052 C223.106707,991.272492 222.41378,991.19028 221.591663,991.143302 C221.497707,990.220704 221.425935,989.384233 221.324149,988.550371 C221.043585,986.252358 221.531636,986.087935 218.665971,986.100984 C216.06521,986.112729 213.465754,986.247138 210.866299,986.307166 C209.668357,986.33457 208.46911,986.311081 207.250289,986.311081 C206.703516,984.122684 206.961896,981.96952 206.86272,979.744584 C207.362514,979.717181 207.756609,979.701521 208.150703,979.674117 C208.645278,979.638884 209.255993,979.832016 209.536557,979.261754 C209.831475,978.662783 209.346035,978.200831 209.026323,977.794993 C207.635248,976.020264 205.903583,974.591346 204.063607,973.326852 C203.279333,972.789214 202.425898,972.362496 201.806048,971.617371 C201.475896,971.219362 201.11051,971.26634 200.73599,971.50645 C200.459342,971.683923 200.191827,971.88358 199.949107,972.104116 C198.835987,973.115451 197.711122,974.113736 196.63193,975.161608 C195.422244,976.334756 194.233436,977.532698 193.085083,978.765874 C192.557884,979.333526 192.748406,979.761549 193.518325,979.886824 C194.084672,979.979475 194.661459,980.016014 195.189963,980.073431 L195.189963,983.686831 C193.691883,983.598095 192.316468,983.517188 190.965848,983.436281 C190.747921,983.137448 190.54435,982.856885 190.246822,982.447131 C189.522576,983.451941 188.614332,983.47021 187.631706,983.277078 C187.357667,983.22227 187.053615,983.33841 186.762611,983.361899 C186.004437,983.424537 185.246262,983.479345 184.535066,983.532847 C184.002647,982.47323 183.864323,982.306197 183.539391,982.34926 C183.018717,982.415812 183.050035,982.929962 182.833414,983.243149 C182.795571,983.300567 182.732933,983.34102 182.668991,983.401048 C182.575034,983.414097 182.465419,983.448026 182.359718,983.441501 C181.1944,983.364509 180.032997,983.256199 178.893777,983.671172 C178.557101,983.793837 178.303941,983.582435 178.06905,983.291432 C177.58622,982.693766 176.927221,982.689851 176.268223,982.956061 C175.570076,983.239234 175.298647,983.898233 175.780172,984.45675 C176.264308,985.017878 176.189926,985.572481 176.162522,986.189721 C176.097275,987.616028 176.015063,989.044946 176.021588,990.471254 C176.038552,993.8067 176.123373,997.140841 176.141643,1000.47498 C176.153387,1002.67382 176.098579,1004.87266 176.073785,1007.07149 C176.072481,1007.21765 176.062041,1007.36641 176.08031,1007.51126 C176.157302,1008.11806 176.550091,1008.54608 177.038142,1008.52912 C177.676261,1008.50824 177.626673,1007.99409 177.69453,1007.56998 C177.70497,1007.49821 177.721934,1007.42513 177.723239,1007.35206 C177.725849,1004.93268 177.8185,1002.5094 177.70497,1000.09524 C177.58883,997.639331 177.437456,995.195164 177.671041,992.737948 C177.753253,991.864938 177.741509,990.978878 177.727154,990.100649 C177.70497,988.529492 177.629283,986.960945 177.616234,985.389788 C177.609709,984.703385 178.049476,984.381063 178.738488,984.446311 C179.787666,984.542877 180.821185,984.887383 181.893852,984.639443 C182.05958,984.600295 182.246188,984.655102 182.375378,984.662932 C182.842549,985.220145 182.971739,985.794322 182.902576,986.449405 C182.860818,986.844804 182.949554,987.253253 182.944335,987.656482 C182.922151,989.559095 182.971739,991.469539 182.837329,993.365628 C182.68465,995.526621 182.521532,997.67326 182.804705,999.836863 C182.914321,1000.66811 182.864733,1001.52155 182.850378,1002.36455 C182.846464,1002.59552 182.770777,1002.89827 182.612878,1003.04181 C182.100034,1003.51029 182.177025,1004.10926 182.182245,1004.68344 C182.190075,1005.44553 182.394952,1005.65954 183.176615,1005.66867 C185.447224,1005.69477 187.717833,1005.69608 189.989747,1005.68825 C190.227247,1005.68825 190.516946,1005.62822 190.691809,1005.48598 C191.051974,1005.19237 191.183774,1003.65383 190.822303,1003.32368 C190.484322,1003.01702 190.515641,1002.69731 190.497371,1002.34106 C190.382536,1000.22052 190.271616,998.099978 190.147646,995.979438 C190.062824,994.516591 189.90101,993.056355 189.878826,991.593509 C189.852727,989.688285 189.929719,987.781757 189.964953,985.875228 C189.975392,985.286697 190.667015,984.484154 191.230752,984.505033 C192.499161,984.553316 193.763655,984.662932 195.105141,984.752973 C195.105141,985.282782 195.111666,985.680791 195.103837,986.0788 C195.043809,988.93794 194.955073,991.797081 194.925059,994.656221 C194.88852,998.247437 194.89896,1001.83996 194.892435,1005.43117 C194.892435,1005.87094 194.876776,1006.31593 194.936803,1006.74917 C194.987696,1007.10412 195.102532,1007.46428 195.259125,1007.78921 C195.422244,1008.1272 195.755005,1008.22768 196.103426,1008.08544 C196.428358,1007.95103 196.434883,1007.68743 196.38138,1007.35467 C196.258715,1006.60041 196.13083,1005.83571 196.13083,1005.07623 C196.13083,1003.09793 196.209127,1001.11963 196.239141,999.141326 C196.25741,997.90554 196.241751,996.66845 196.241751,995.30739 C196.853771,995.356978 197.370531,995.398736 197.974721,995.448324 C197.974721,997.392696 197.992991,999.222233 197.969502,1001.05046 C197.944708,1003.02876 197.878155,1005.00576 197.839007,1006.98406 C197.835092,1007.19938 197.829872,1007.45776 197.939488,1007.61827 C198.066068,1007.80357 198.319227,1007.90274 198.51758,1008.03846 C198.642854,1007.84533 198.832072,1007.66655 198.877745,1007.45645 C198.959957,1007.08454 198.954737,1006.69567 198.986056,1006.30418 C200.585921,1006.37726 202.039633,1006.44251 203.49465,1006.50906 C203.575556,1006.95666 203.642109,1007.31552 203.707356,1007.67438 C203.771299,1008.0228 203.905708,1008.38557 204.316767,1008.2616 C204.49163,1008.20941 204.667798,1007.81792 204.667798,1007.58042 C204.675627,1004.97705 204.656053,1002.37499 204.626039,999.771616 C204.609075,998.261791 204.48641,996.749357 204.905298,995.266936 C206.48559,995.359588 206.515603,995.386992 206.546922,996.898121 C206.575631,998.364882 206.621304,999.831643 206.621304,1001.2971 C206.622609,1003.38763 206.582156,1005.47685 206.574326,1007.56607 C206.573021,1007.88969 206.597815,1008.2342 206.710041,1008.53042 C206.767458,1008.6818 207.053242,1008.8397 207.22419,1008.82795 C207.395138,1008.8149 207.637858,1008.62569 207.695276,1008.45996 C207.787927,1008.19375 207.767048,1007.88317 207.769658,1007.59217 C207.781403,1006.67479 207.781403,1005.75872 207.784013,1004.84134 C207.790537,1002.60857 207.795757,1000.37581 207.799672,998.143041 C207.802282,997.018176 207.800977,995.893311 207.800977,994.744957 C211.877633,995.093378 215.955594,994.534861 220.06357,994.975933 C220.06357,995.675385 220.054435,996.261306 220.064875,996.847228 C220.094888,998.603687 220.132732,1000.36145 220.165356,1002.11791 C220.199284,1003.91352 220.216248,1005.71043 220.281496,1007.50604 C220.291935,1007.79835 220.443309,1008.17939 220.661236,1008.34251 C220.888296,1008.51215 221.373737,1008.61133 221.568174,1008.47953 C221.80959,1008.31511 221.983148,1007.88447 221.988367,1007.56476 C222.026211,1004.9627 222.017076,1002.35933 222.020991,999.755956 C222.023601,998.1587 222.020991,996.562749 222.020991,994.866317 C223.432944,995.022911 224.840983,995.018996 226.087208,995.828064 C227.722307,996.891596 228.978972,998.29311 229.863726,1000.02347 C230.287834,1000.85342 230.739346,1001.66379 231.207822,1002.46503 C231.266545,1001.9835 231.457067,1001.5346 231.737631,1001.14703 C231.778084,1000.99827 231.830282,1000.85472 231.894225,1000.71509 L231.894225,1000.71509 Z" id="Fill-4"></path>
        </g>
    </g>
</svg>