<?xml version="1.0" encoding="utf-8"?>
<!-- Generator: Adobe Illustrator 25.4.1, SVG Export Plug-In . SVG Version: 6.00 Build 0)  -->
<svg version="1.1" id="Layer_1" xmlns="http://www.w3.org/2000/svg" xmlns:xlink="http://www.w3.org/1999/xlink" x="0px" y="0px"
	 viewBox="0 0 93.7 55" enable-background="new 0 0 93.7 55" xml:space="preserve">
<g id="Layer_2_00000125593283078182401710000005343984630723365264_">
	<g id="Layer_1-2">
		<path fill-rule="evenodd" clip-rule="evenodd" fill="#FFFFFF" d="M36.9,47.1c-0.9-3.5-3-5.7-6.6-5.6S23,43.6,22,47.7
			c-0.3,0.2-0.4,0.3-0.6,0.3L4.5,49c-2.2,0.1-2.7-0.3-3.1-2.4s-1-6.1-1.3-9.1s0.6-2.9,2.8-3.3l14.7-2.4c-0.1-1.1-0.3-2.3-0.5-3.4
			c-1-3.6-2.1-7.2-3.2-10.7c0-0.2-0.1-0.3-0.1-0.5c-1-3.9-1.4-4.9,3.2-6.4s7.1-2.6,10.8-3.6s8.7-2.1,13.1-3s11.7-2.4,17.5-3.3
			s9-0.7,13.5-0.9c2.3-0.1,3.1,0.7,3.5,3c1,5.4,1.9,10.8,2.8,16.2c0,0.2,0.2,0.4,0.3,0.8l7.7-0.6l4.8-0.2c2,0.1,2.7,0.8,2.7,2.8
			c0.2,6-0.9,11.9-1.8,17.7c-0.2,1.3-0.7,2.5-2.1,2.6l-10.6,1.3c-0.8-5.6-4.3-8.9-8.9-8.8c-2.4,0-3.6,1.7-5.2,3
			c-1.6,1.3-1.1,3.8-1.3,6.1l-13.2,1.4L36.9,47.1 M51.2,23.7c6-0.8,11.7-0.7,17.1-3.5c-0.4-4.1-2.1-7.9-3.3-12
			c-5.8,1.1-11.4,1.8-16.7,4.6C49.3,16.4,50.2,20,51.2,23.7 M40.1,26.2c-0.2-3.2-1.1-6.2-2.7-9c-0.3-0.6-0.9-1.1-1.6-1.2L29,16.6
			v13.5C32.9,29.7,36.7,28.4,40.1,26.2"/>
		<g>
			<defs>
				<path id="SVGID_1_" d="M29.3,55c-2.7,0-5.1-1.8-5.5-4s1.1-6.9,4.1-7.6c1.3-0.2,2.9-1.4,4.1,0.3c0.1,0.2,0.4,0.2,0.6,0.2
					c1.7,0.1,3.1,1.5,3,3.2c0,0.3-0.1,0.7-0.2,1c-0.1,0.8-0.2,1.7-0.3,2.5c0,0.4,0,0.8-0.2,1.1C33.6,53.6,31.5,54.8,29.3,55
					 M32,45.1c-1.1,1.3-1.5,3.1-1,4.8c0.5,0.9,0.1,2.1-0.8,2.6c-0.1,0.1-0.2,0.1-0.4,0.1c-0.2-0.8-0.4-1.5-0.5-2.1l-1.9,1.8
					c2.4,1.4,4.7,0.9,6.1-1.3C34.6,49,33.9,46.4,32,45.1"/>
			</defs>
			<clipPath id="SVGID_00000040552320575418939270000006510217387268152740_">
				<use xlink:href="#SVGID_1_"  overflow="visible"/>
			</clipPath>
			<g clip-path="url(#SVGID_00000040552320575418939270000006510217387268152740_)">
				<g>
					<defs>
						<rect id="SVGID_00000094612095197726842060000005409931291432328068_" x="-1469.8" y="-964" width="1920" height="1080"/>
					</defs>
					<clipPath id="SVGID_00000058561502022950966970000010456708649146274213_">
						<use xlink:href="#SVGID_00000094612095197726842060000005409931291432328068_"  overflow="visible"/>
					</clipPath>
					<g clip-path="url(#SVGID_00000058561502022950966970000010456708649146274213_)">
						<rect x="22.3" y="41" fill="#FFFFFF" width="14.7" height="15"/>
					</g>
				</g>
			</g>
		</g>
		<g>
			<defs>
				<path id="SVGID_00000180325321399090002680000013265562730856436864_" d="M66.6,41.7c0.2-4,2-5.2,5-4.1c1.2,0.5,2.4,1.1,3.5,1.9
					c1.4,1.1,1.2,4.2-0.4,5.8c-0.6,0.6-1.3,1.1-2,1.6c-1.6,0.9-3.2,0.8-4.2-0.8S67.1,42.7,66.6,41.7 M71.3,41.6l2-0.5l-1.2,3.4
					l-1.3-0.8l-1.1,1.9c0.5,0.8,1.4,1,2.2,0.5c0.1,0,0.1-0.1,0.2-0.1c1.6-1,2.7-2.3,2.6-4.2s-1-2.4-2.6-3L71.3,41.6"/>
			</defs>
			<clipPath id="SVGID_00000166675313468109266790000011903833564164051345_">
				<use xlink:href="#SVGID_00000180325321399090002680000013265562730856436864_"  overflow="visible"/>
			</clipPath>
			<g clip-path="url(#SVGID_00000166675313468109266790000011903833564164051345_)">
				<g>
					<defs>
						<rect id="SVGID_00000005982756042249898410000011628136444700268990_" x="-1469.8" y="-964" width="1920" height="1080"/>
					</defs>
					<clipPath id="SVGID_00000006668602607453657630000010550132654433756336_">
						<use xlink:href="#SVGID_00000005982756042249898410000011628136444700268990_"  overflow="visible"/>
					</clipPath>
					<g clip-path="url(#SVGID_00000006668602607453657630000010550132654433756336_)">
						<rect x="65.6" y="35.5" fill="#FFFFFF" width="11.9" height="13.3"/>
					</g>
				</g>
			</g>
		</g>
	</g>
</g>
</svg>
