<?xml version="1.0" encoding="utf-8"?>
<!-- Generator: Adobe Illustrator 25.4.1, SVG Export Plug-In . SVG Version: 6.00 Build 0)  -->
<svg version="1.1" id="Layer_1" xmlns="http://www.w3.org/2000/svg" xmlns:xlink="http://www.w3.org/1999/xlink" x="0px" y="0px"
	 viewBox="0 0 93.7 55" style="enable-background:new 0 0 93.7 55;" xml:space="preserve">
<style type="text/css">
	.st0{fill-rule:evenodd;clip-rule:evenodd;fill:#FFFFFF;}
	.st1{fill:#FFFFFF;}
</style>
<path class="st0" d="M36.9,47.1c-0.9-3.5-3-5.7-6.6-5.6S23,43.6,22,47.7c-0.3,0.2-0.4,0.3-0.6,0.3L4.5,49c-2.2,0.1-2.7-0.3-3.1-2.4
	s-1-6.1-1.3-9.1s0.6-2.9,2.8-3.3l14.7-2.4c-0.1-1.1-0.3-2.3-0.5-3.4c-1-3.6-2.1-7.2-3.2-10.7c0-0.2-0.1-0.3-0.1-0.5
	c-1-3.9-1.4-4.9,3.2-6.4s7.1-2.6,10.8-3.6s8.7-2.1,13.1-3s11.7-2.4,17.5-3.3s9-0.7,13.5-0.9c2.3-0.1,3.1,0.7,3.5,3
	c1,5.4,1.9,10.8,2.8,16.2c0,0.2,0.2,0.4,0.3,0.8l7.7-0.6l4.8-0.2c2,0.1,2.7,0.8,2.7,2.8c0.2,6-0.9,11.9-1.8,17.7
	c-0.2,1.3-0.7,2.5-2.1,2.6l-10.6,1.3c-0.8-5.6-4.3-8.9-8.9-8.8c-2.4,0-3.6,1.7-5.2,3c-1.6,1.3-1.1,3.8-1.3,6.1l-13.2,1.4L36.9,47.1
	 M51.2,23.7c6-0.8,11.7-0.7,17.1-3.5c-0.4-4.1-2.1-7.9-3.3-12c-5.8,1.1-11.4,1.8-16.7,4.6C49.3,16.4,50.2,20,51.2,23.7 M40.1,26.2
	c-0.2-3.2-1.1-6.2-2.7-9c-0.3-0.6-0.9-1.1-1.6-1.2L29,16.6v13.5C32.9,29.7,36.7,28.4,40.1,26.2"/>
<path class="st1" d="M29.3,55c-2.7,0-5.1-1.8-5.5-4s1.1-6.9,4.1-7.6c1.3-0.2,2.9-1.4,4.1,0.3c0.1,0.2,0.4,0.2,0.6,0.2
	c1.7,0.1,3.1,1.5,3,3.2c0,0.3-0.1,0.7-0.2,1c-0.1,0.8-0.2,1.7-0.3,2.5c0,0.4,0,0.8-0.2,1.1C33.6,53.6,31.5,54.8,29.3,55 M32,45.1
	c-1.1,1.3-1.5,3.1-1,4.8c0.5,0.9,0.1,2.1-0.8,2.6c-0.1,0.1-0.2,0.1-0.4,0.1c-0.2-0.8-0.4-1.5-0.5-2.1l-1.9,1.8
	c2.4,1.4,4.7,0.9,6.1-1.3C34.6,49,33.9,46.4,32,45.1"/>
<path class="st1" d="M66.6,41.7c0.2-4,2-5.2,5-4.1c1.2,0.5,2.4,1.1,3.5,1.9c1.4,1.1,1.2,4.2-0.4,5.8c-0.6,0.6-1.3,1.1-2,1.6
	c-1.6,0.9-3.2,0.8-4.2-0.8S67.1,42.7,66.6,41.7 M71.3,41.6l2-0.5l-1.2,3.4l-1.3-0.8l-1.1,1.9c0.5,0.8,1.4,1,2.2,0.5
	c0.1,0,0.1-0.1,0.2-0.1c1.6-1,2.7-2.3,2.6-4.2s-1-2.4-2.6-3L71.3,41.6"/>
</svg>
