<svg xmlns="http://www.w3.org/2000/svg" xmlns:xlink="http://www.w3.org/1999/xlink" viewBox="0 0 63.5 57"><defs><clipPath id="clip-path" transform="translate(1 1)"><path d="M10.7,19.1a1,1,0,0,1-1.4.5,1.1,1.1,0,0,1-.7-1.4,1.1,1.1,0,0,1,1.5-.6,1.1,1.1,0,0,1,.6,1.5M57.2,38.5c-1.6-1.9-3.7-3.3-5.4-5.1a4.2,4.2,0,0,1-1.2-2.5,58.8,58.8,0,0,1,.8-6.4c2.9-2,5.1-1.9,7.6-4.1s3-4.2,2.1-7.1-6.7-3.4-6.7-3.4,3,3.1,3.1,4.9c.1,3.4-3.1,3.9-4.4,4.5s-4.1.4-6,.4c-3.9,0-7.8-.4-11.8-.6-2.1-.1-4.3,0-6.8,0,1.9-2.7,5.9-1.9,5.9-5.5-2.1.2-5.7-2.4-7.6-2a9.5,9.5,0,0,1-7.7-1.3,29.7,29.7,0,0,0-5.7-2.7,4.4,4.4,0,0,1-3-2.9A13.8,13.8,0,0,0,8.6.8C8.1,0,2.7.9,1.7,0,.7,2.7,6,4.4,5.1,6.9s-3.9,4.4-4.6,7c-1.6,5.5.9,10.5,5.9,13.4a15.8,15.8,0,0,1,2.4,1.5l-.8,1L3.1,34a7,7,0,0,0-1.8,7.8c.2.4-.8,2.2-.7,2.7s2.2,1.5,4.3-.4c.3-.2,1.4-1.2,1.3-1.6-1.6-4.1,1-5.9,3.8-7.7a4.3,4.3,0,0,0,1-.9c1.4-1.8,3.1-2.2,5.4-.5-.2,5.9.7,12-2.3,17.7-.7,1.4.1,2.5,1.3,3.4a2.3,2.3,0,0,0,3.3-.5,13,13,0,0,0,2-4.5c.5-4,.8-8,1.1-12,.1-1.8.7-2.9,2.5-2.9,5.2-.1,7.8,2.4,13.1,2.6,3.3.1,4.3-2.1,5.3-1.7-1.6,5.2-3,10.3-7.5,13.7-1,.8-2,1.8-1,3.1a2.6,2.6,0,0,0,3.6.9,9,9,0,0,0,2.8-1.8A29.8,29.8,0,0,0,44,46.1c1.5-3.1,2.7-6.3,4.1-9.7,3.8,3.5,7.5,6.6,8.5,11.8.1.7,1.3,2,1.9,1.9a3.6,3.6,0,0,0,2.4-1.9,5.5,5.5,0,0,0,0-3.8,25.5,25.5,0,0,0-3.7-5.9" fill="none" clip-rule="evenodd"/></clipPath><clipPath id="clip-path-2" transform="translate(1 1)"><rect width="61.5" height="55" fill="none"/></clipPath></defs><g id="Layer_2" data-name="Layer 2"><g id="Layer_1-2" data-name="Layer 1"><g clip-path="url(#clip-path)"><g clip-path="url(#clip-path-2)"><rect width="63.5" height="57" fill="#fff"/></g></g></g></g></svg>