<?xml version="1.0" encoding="utf-8"?>
<!-- Generator: Adobe Illustrator 25.4.1, SVG Export Plug-In . SVG Version: 6.00 Build 0)  -->
<svg version="1.1" id="Layer_1" xmlns="http://www.w3.org/2000/svg" xmlns:xlink="http://www.w3.org/1999/xlink" x="0px" y="0px"
	 viewBox="0 0 63.5 57" style="enable-background:new 0 0 63.5 57;" xml:space="preserve">
<style type="text/css">
	.st0{clip-path:url(#SVGID_00000084502767846797482310000013597908672566679967_);}
</style>
<g>
	<defs>
		<path id="SVGID_1_" d="M11.7,20.1c-0.2,0.5-0.8,0.8-1.3,0.5c0,0-0.1,0-0.1,0c-0.6-0.2-0.9-0.8-0.7-1.4c0,0,0,0,0,0
			c0.2-0.6,0.9-0.9,1.4-0.6c0,0,0.1,0,0.1,0C11.7,18.8,12,19.5,11.7,20.1C11.7,20,11.7,20.1,11.7,20.1 M58.2,39.5
			c-1.6-1.9-3.7-3.3-5.4-5.1c-0.7-0.7-1.1-1.6-1.2-2.5c0.1-2.1,0.4-4.3,0.8-6.4c2.9-2,5.1-1.9,7.6-4.1s3-4.2,2.1-7.1
			s-6.7-3.4-6.7-3.4s3,3.1,3.1,4.9c0.1,3.4-3.1,3.9-4.4,4.5s-4.1,0.4-6,0.4c-3.9,0-7.8-0.4-11.8-0.6c-2.1-0.1-4.3,0-6.8,0
			c1.9-2.7,5.9-1.9,5.9-5.5c-2.1,0.2-5.7-2.4-7.6-2c-2.6,0.7-5.4,0.2-7.7-1.3c-1.8-1.1-3.7-2-5.7-2.7c-1.4-0.4-2.6-1.5-3-2.9
			C11,4.3,10.4,3,9.6,1.8C9.1,1,3.7,1.9,2.7,1C1.7,3.7,7,5.4,6.1,7.9s-3.9,4.4-4.6,7c-1.6,5.5,0.9,10.5,5.9,13.4
			c0.8,0.4,1.6,0.9,2.4,1.5l-0.8,1L4.1,35c-2.2,2-2.9,5.1-1.8,7.8c0.2,0.4-0.8,2.2-0.7,2.7C1.7,46,3.8,47,5.9,45.1
			c0.3-0.2,1.4-1.2,1.3-1.6c-1.6-4.1,1-5.9,3.8-7.7c0.4-0.2,0.7-0.5,1-0.9c1.4-1.8,3.1-2.2,5.4-0.5c-0.2,5.9,0.7,12-2.3,17.7
			c-0.7,1.4,0.1,2.5,1.3,3.4c1,0.8,2.4,0.6,3.2-0.4c0,0,0-0.1,0.1-0.1c0.9-1.4,1.6-2.9,2-4.5c0.5-4,0.8-8,1.1-12
			c0.1-1.8,0.7-2.9,2.5-2.9c5.2-0.1,7.8,2.4,13.1,2.6c3.3,0.1,4.3-2.1,5.3-1.7c-1.6,5.2-3,10.3-7.5,13.7c-1,0.8-2,1.8-1,3.1
			c0.7,1.2,2.3,1.7,3.6,0.9c0,0,0,0,0,0c1-0.4,2-1,2.8-1.8c1.3-1.6,2.5-3.4,3.4-5.3c1.5-3.1,2.7-6.3,4.1-9.7
			c3.8,3.5,7.5,6.6,8.5,11.8c0.1,0.7,1.3,2,1.9,1.9c1-0.2,1.9-0.9,2.4-1.9c0.5-1.2,0.5-2.6,0-3.8C60.9,43.3,59.7,41.3,58.2,39.5"/>
	</defs>
	<use xlink:href="#SVGID_1_"  style="overflow:visible;fill:#FFFFFF;"/>
	<clipPath id="SVGID_00000085214070563807359230000005423871639952404376_">
		<use xlink:href="#SVGID_1_"  style="overflow:visible;"/>
	</clipPath>
	<g style="clip-path:url(#SVGID_00000085214070563807359230000005423871639952404376_);">
		<g>
			<defs>
				<rect id="SVGID_00000039845290923882878610000011367337693044333742_" x="1" y="1" width="61.5" height="55"/>
			</defs>
			<use xlink:href="#SVGID_00000039845290923882878610000011367337693044333742_"  style="overflow:visible;fill:#FFFFFF;"/>
			<clipPath id="SVGID_00000001657911394914558760000009366613514709139334_">
				<use xlink:href="#SVGID_00000039845290923882878610000011367337693044333742_"  style="overflow:visible;"/>
			</clipPath>
		</g>
	</g>
</g>
</svg>
